<svg width="28" height="28" viewBox="0 0 28 28" fill="none" xmlns="http://www.w3.org/2000/svg">
<path fill-rule="evenodd" clip-rule="evenodd" d="M23.9219 13.9609C23.9219 19.4004 19.4102 23.9219 13.9609 23.9219C8.52148 23.9219 4 19.4004 4 13.9609C4 8.51172 8.51172 4 13.9512 4C19.4004 4 23.9219 8.51172 23.9219 13.9609ZM9.89844 17.9844C9.89844 18.3945 10.1914 18.6777 10.6504 18.6777C11.0117 18.6777 11.2754 18.5117 11.4316 18.0332L12.1641 15.8945H15.7578L16.4902 18.0332C16.6465 18.502 16.9004 18.6777 17.2715 18.6777C17.7207 18.6777 18.0234 18.3945 18.0234 17.9844C18.0234 17.8281 17.9941 17.6816 17.916 17.457L15.084 9.85938C14.8887 9.33203 14.5078 9.05859 13.9512 9.05859C13.4043 9.05859 13.0332 9.33203 12.8281 9.85938L10.0059 17.457C9.91797 17.6816 9.89844 17.8281 9.89844 17.9844ZM15.3477 14.6738H12.5644L13.9023 10.7871H14.0098L15.3477 14.6738Z" fill="#C7C7CC"/>
</svg>
