<svg width="28" height="28" viewBox="0 0 28 28" fill="none" xmlns="http://www.w3.org/2000/svg">
<path d="M23.457 16.9922C23.457 13.2617 20.9277 10.6836 16.4746 10.6836H9.91211L6.88477 10.8203L7.06055 11.2695L9.47266 9.20899L12.2949 6.45508C12.4414 6.29883 12.5293 6.11328 12.5293 5.85938C12.5293 5.35156 12.1875 5 11.6602 5C11.4551 5 11.2012 5.10742 11.0352 5.27344L5.29297 10.9082C5.09766 11.0938 5 11.3184 5 11.5625C5 11.7969 5.09766 12.0215 5.29297 12.207L11.0352 17.8418C11.2012 18.0176 11.4551 18.1152 11.6602 18.1152C12.1875 18.1152 12.5293 17.7637 12.5293 17.2559C12.5293 17.0019 12.4414 16.8164 12.2949 16.6601L9.47266 13.916L7.06055 11.8457L6.88477 12.2949L9.91211 12.4316H16.6211C19.9512 12.4316 21.709 14.2676 21.709 16.8945C21.709 19.5312 19.9512 21.4844 16.6211 21.4844H14.375C13.8379 21.4844 13.4863 21.875 13.4863 22.3535C13.4863 22.832 13.8379 23.2226 14.375 23.2226H16.6309C20.9961 23.2226 23.457 20.7324 23.457 16.9922Z" fill="#C7C7CC"/>
</svg>
