<svg width="28" height="28" viewBox="0 0 28 28" fill="none" xmlns="http://www.w3.org/2000/svg">
<path d="M5 15.3828C5 20.1777 8.84766 24.0254 13.6328 24.0254C18.418 24.0254 22.2559 20.1777 22.2559 15.3828C22.2559 14.9141 21.9238 14.5723 21.4453 14.5723C20.9863 14.5723 20.6836 14.9141 20.6836 15.3828C20.6836 19.3086 17.5488 22.4531 13.6328 22.4531C9.7168 22.4531 6.57227 19.3086 6.57227 15.3828C6.57227 11.4668 9.7168 8.33203 13.6328 8.33203C14.375 8.33203 15.0684 8.39062 15.6445 8.52734L12.7246 11.418C12.5781 11.5742 12.5 11.7695 12.5 11.9746C12.5 12.4238 12.832 12.7559 13.2715 12.7559C13.5156 12.7559 13.7012 12.6777 13.8379 12.5312L17.8613 8.48828C18.0371 8.32227 18.1055 8.12695 18.1055 7.90234C18.1055 7.6875 18.0176 7.47266 17.8613 7.31641L13.8379 3.23438C13.7012 3.07812 13.5059 3 13.2715 3C12.832 3 12.5 3.35156 12.5 3.80078C12.5 4.00586 12.5781 4.20117 12.7148 4.35742L15.3125 6.92578C14.8047 6.82812 14.2285 6.75977 13.6328 6.75977C8.84766 6.75977 5 10.5977 5 15.3828Z" fill="#C7C7CC"/>
</svg>
