<svg width="28" height="28" viewBox="0 0 28 28" fill="none" xmlns="http://www.w3.org/2000/svg">
<path d="M23.065 14.0023C23.065 14.2465 22.9576 14.4711 22.7623 14.6566L16.2779 21.1312C16.0826 21.3168 15.8775 21.4047 15.6431 21.4047C15.1646 21.4047 14.7838 21.0531 14.7838 20.5648C14.7838 20.3305 14.8716 20.0961 15.0279 19.9496L17.2154 17.723L21.0826 14.1977L21.2877 14.6762L18.1431 14.8715H5.7896C5.2818 14.8715 4.9302 14.5102 4.9302 14.0023C4.9302 13.4945 5.2818 13.1332 5.7896 13.1332H18.1431L21.2877 13.3285L21.0826 13.8168L17.2154 10.2816L15.0279 8.05508C14.8716 7.89883 14.7838 7.67422 14.7838 7.43984C14.7838 6.95156 15.1646 6.6 15.6431 6.6C15.8775 6.6 16.0826 6.67812 16.2974 6.89297L22.7623 13.348C22.9576 13.5336 23.065 13.7582 23.065 14.0023Z" fill="#C7C7CC"/>
</svg>
