<svg width="28" height="28" viewBox="0 0 28 28" fill="none" xmlns="http://www.w3.org/2000/svg">
<path d="M14.4023 23.4473C14.9102 23.4473 15.2715 23.0957 15.2715 22.5879V9.72656L15.1738 6.81641L14.6172 7.01172L18.123 10.8496L20.3496 13.0371C20.5059 13.1934 20.7305 13.2715 20.9648 13.2715C21.4531 13.2715 21.8047 12.9004 21.8047 12.4219C21.8047 12.1875 21.7266 11.9824 21.541 11.7871L15.0566 5.29297C14.8711 5.09766 14.6465 5 14.4023 5C14.1582 5 13.9336 5.09766 13.7481 5.29297L7.27344 11.7871C7.08789 11.9824 7 12.1875 7 12.4219C7 12.9004 7.35156 13.2715 7.83984 13.2715C8.07422 13.2715 8.30859 13.1934 8.45508 13.0371L10.6816 10.8496L14.1777 7.01172L13.6309 6.81641L13.5332 9.72656V22.5879C13.5332 23.0957 13.8945 23.4473 14.4023 23.4473Z" fill="#C7C7CC"/>
</svg>
