<svg width="28" height="28" viewBox="0 0 28 28" fill="none" xmlns="http://www.w3.org/2000/svg">
<path d="M14.4024 5C13.8945 5 13.5332 5.3516 13.5332 5.8594L13.5332 18.7207L13.6309 21.6309L14.1875 21.4356L10.6817 17.5977L8.4551 15.4102C8.2988 15.2539 8.0742 15.1758 7.8399 15.1758C7.3516 15.1758 7 15.5469 7 16.0254C7 16.2598 7.0781 16.4649 7.2637 16.6602L13.7481 23.1543C13.9336 23.3496 14.1582 23.4473 14.4024 23.4473C14.6465 23.4473 14.8711 23.3496 15.0566 23.1543L21.5313 16.6602C21.7168 16.4649 21.8047 16.2598 21.8047 16.0254C21.8047 15.5469 21.4531 15.1758 20.9649 15.1758C20.7305 15.1758 20.4961 15.2539 20.3496 15.4102L18.1231 17.5977L14.627 21.4356L15.1738 21.6309L15.2715 18.7207L15.2715 5.8594C15.2715 5.3516 14.9102 5 14.4024 5Z" fill="#C7C7CC"/>
</svg>
