<svg width="28" height="28" viewBox="0 0 28 28" fill="none" xmlns="http://www.w3.org/2000/svg">
<path fill-rule="evenodd" clip-rule="evenodd" d="M13.961 4C19.4004 4 23.9219 8.51172 23.9219 13.961C23.9219 19.4004 19.4004 23.9219 13.961 23.9219C8.51173 23.9219 4.00002 19.4102 4.00002 13.9707C4.00002 8.52151 8.51173 4 13.961 4ZM9.59572 13.1895C9.1465 13.1895 8.834 13.502 8.834 13.9512C8.834 14.3907 9.1465 14.7129 9.59572 14.7129L14.6055 14.7129L16.7441 14.625L15.5332 15.6309L14.332 16.8223C14.1855 16.959 14.1074 17.1543 14.1074 17.3594C14.1074 17.7793 14.4199 18.0918 14.8398 18.0918C15.0547 18.0918 15.2305 18.0332 15.3672 17.8965L18.707 14.5371C18.9121 14.3321 19 14.166 19 13.9512C19 13.7266 18.9023 13.5508 18.707 13.3555L15.3672 10.0059C15.2305 9.8692 15.0547 9.79102 14.8398 9.79102C14.4199 9.79102 14.1074 10.1133 14.1074 10.5332C14.1074 10.7481 14.1758 10.9336 14.332 11.0703L15.5332 12.252L16.7539 13.2774L14.6055 13.1895L9.59572 13.1895Z" fill="#C7C7CC"/>
</svg>
