<svg width="28" height="28" viewBox="0 0 28 28" fill="none" xmlns="http://www.w3.org/2000/svg">
<path fill-rule="evenodd" clip-rule="evenodd" d="M23.9219 13.9609C23.9219 19.4004 19.4102 23.9219 13.9609 23.9219C8.52148 23.9219 4 19.4004 4 13.9609C4 8.51172 8.51172 4 13.9512 4C19.4004 4 23.9219 8.51172 23.9219 13.9609ZM14.7324 9.5957C14.7324 9.14648 14.4199 8.83398 13.9707 8.83398C13.5312 8.83398 13.209 9.14648 13.209 9.5957V14.6055L13.2969 16.7441L12.291 15.5332L11.0996 14.332C10.9629 14.1855 10.7676 14.1074 10.5625 14.1074C10.1426 14.1074 9.83008 14.4199 9.83008 14.8398C9.83008 15.0547 9.88867 15.2305 10.0254 15.3672L13.3848 18.707C13.5898 18.9121 13.7559 19 13.9707 19C14.1953 19 14.3711 18.9023 14.5664 18.707L17.916 15.3672C18.0527 15.2305 18.1309 15.0547 18.1309 14.8398C18.1309 14.4199 17.8086 14.1074 17.3887 14.1074C17.1738 14.1074 16.9883 14.1758 16.8516 14.332L15.6699 15.5332L14.6445 16.7539L14.7324 14.6055V9.5957Z" fill="#C7C7CC"/>
</svg>
