<svg width="28" height="28" viewBox="0 0 28 28" fill="none" xmlns="http://www.w3.org/2000/svg">
<path d="M15.0352 21.8047C15.2695 21.8047 15.4746 21.7266 15.6699 21.541L22.1641 15.0566C22.3594 14.8711 22.457 14.6465 22.457 14.4023C22.457 14.168 22.3594 13.9434 22.1641 13.7481L15.6699 7.27344C15.4746 7.08789 15.2695 7 15.0352 7C14.5566 7 14.1855 7.36133 14.1855 7.83984C14.1855 8.07422 14.2637 8.30859 14.4199 8.46484L16.6074 10.6816L20.4453 14.1875L20.6406 13.6406L17.7305 13.5332H4.85938C4.35156 13.5332 4 13.8945 4 14.4023C4 14.9102 4.35156 15.2812 4.85938 15.2812H17.7305L20.6406 15.1738L20.4453 14.6367L16.6074 18.123L14.4199 20.3496C14.2637 20.5059 14.1855 20.7402 14.1855 20.9648C14.1855 21.4531 14.5566 21.8047 15.0352 21.8047ZM23.3262 21.8047C23.834 21.8047 24.2051 21.4629 24.2051 20.9648V7.86914C24.2051 7.36133 23.834 7 23.3262 7C22.8184 7 22.457 7.36133 22.457 7.86914V20.9648C22.457 21.4629 22.8184 21.8047 23.3262 21.8047Z" fill="#C7C7CC"/>
</svg>
