<svg width="28" height="28" viewBox="0 0 28 28" fill="none" xmlns="http://www.w3.org/2000/svg">
<path d="M14.5137 22.9102C14.9922 22.9102 15.3828 22.7148 15.8516 22.2754L23.5566 15C23.9277 14.6484 24.0547 14.2773 24.0547 13.9551C24.0547 13.623 23.9375 13.2617 23.5566 12.9004L15.8516 5.69336C15.334 5.20508 15.0117 5 14.5332 5C13.8496 5 13.3613 5.53711 13.3613 6.19141V9.88281H13.0781C6.05664 9.88281 3 14.3848 3 21.6016C3 22.4414 3.47852 22.9102 4.00586 22.9102C4.41602 22.9102 4.86523 22.8125 5.20703 22.1875C6.90625 18.9941 9.29883 18.0371 13.0781 18.0371H13.3613V21.7676C13.3613 22.4219 13.8496 22.9102 14.5137 22.9102Z" fill="#C7C7CC"/>
</svg>
