<svg width="28" height="28" viewBox="0 0 28 28" fill="none" xmlns="http://www.w3.org/2000/svg">
<path d="M8.81234 24.9375H19.1834C21.2049 24.9375 22.2108 23.9121 22.2108 21.8809V13.0137C22.2108 11.7539 22.0643 11.207 21.283 10.4062L15.9022 4.92773C15.16 4.16602 14.5448 4 13.451 4H8.81234C6.80062 4 5.785 5.03516 5.785 7.06641V21.8809C5.785 23.9219 6.79086 24.9375 8.81234 24.9375ZM8.8807 23.3652C7.87484 23.3652 7.35727 22.8281 7.35727 21.8516V7.0957C7.35727 6.12891 7.87484 5.57227 8.89047 5.57227H13.2362V11.2461C13.2362 12.4766 13.8514 13.082 15.0721 13.082H20.6385V21.8516C20.6385 22.8281 20.1209 23.3652 19.1053 23.3652H8.8807ZM15.2479 11.6074C14.8573 11.6074 14.7108 11.4512 14.7108 11.0606V5.875L20.3358 11.6074H15.2479Z" fill="#C7C7CC"/>
<path d="M14.7401 14.9277C14.7401 14.5273 14.3983 14.2051 13.9979 14.2051C13.5975 14.2051 13.2557 14.5273 13.2557 14.9277V18.4727L13.3143 20.0645L12.4842 19.2051L11.6053 18.3066C11.4686 18.1602 11.2635 18.082 11.078 18.082C10.6776 18.082 10.3944 18.3652 10.3944 18.7559C10.3944 18.9805 10.4823 19.1465 10.6385 19.2832L13.451 21.8711C13.6561 22.0566 13.8123 22.125 13.9979 22.125C14.1834 22.125 14.3397 22.0566 14.5448 21.8711L17.3573 19.2832C17.5135 19.1465 17.6014 18.9805 17.6014 18.7559C17.6014 18.3652 17.3084 18.082 16.9178 18.082C16.7225 18.082 16.5272 18.1602 16.3905 18.3066L15.5116 19.2051L14.6815 20.0645L14.7401 18.4727V14.9277Z" fill="#C7C7CC"/>
</svg>
