<svg width="28" height="28" viewBox="0 0 28 28" fill="none" xmlns="http://www.w3.org/2000/svg">
<path d="M13.9551 3C13.6328 3 13.2617 3.12695 12.9102 3.49805L5.63477 11.2031C5.19531 11.6719 5 12.0625 5 12.541C5 13.2051 5.48828 13.6836 6.14258 13.6836H10.0977V21.8086C10.0977 23.2246 10.8984 24.0547 12.2949 24.0547H15.6055C17.002 24.0547 17.8027 23.2246 17.8027 21.8086V13.6836H21.7188C22.373 13.6836 22.9199 13.2051 22.9199 12.5215C22.9199 12.043 22.7051 11.7207 22.2168 11.2031L15.0098 3.49805C14.6582 3.11719 14.2871 3 13.9551 3Z" fill="#C7C7CC"/>
</svg>
