<svg width="28" height="28" viewBox="0 0 28 28" fill="none" xmlns="http://www.w3.org/2000/svg">
<path fill-rule="evenodd" clip-rule="evenodd" d="M22.2108 21.8809C22.2108 23.9121 21.2049 24.9375 19.1834 24.9375H8.81235C6.79086 24.9375 5.785 23.9219 5.785 21.8809V7.06641C5.785 5.03516 6.80063 4 8.81235 4H13.2948V11.168C13.2948 12.418 13.8905 13.0137 15.1405 13.0137H22.2108V21.8809ZM14.7206 15.5039C14.7206 15.123 14.3885 14.8105 13.9979 14.8105C13.6073 14.8105 13.285 15.123 13.285 15.5039V18.9609L13.3436 20.4941L12.5233 19.6641L11.6737 18.7949C11.537 18.6582 11.3416 18.5801 11.1659 18.5801C10.7752 18.5801 10.5018 18.8535 10.5018 19.2246C10.5018 19.4395 10.5897 19.6055 10.7362 19.7324L13.4706 22.252C13.6659 22.4277 13.8221 22.4961 13.9979 22.4961C14.1737 22.4961 14.3299 22.4277 14.5252 22.252L17.2596 19.7324C17.4061 19.6055 17.494 19.4395 17.494 19.2246C17.494 18.8535 17.2108 18.5801 16.8299 18.5801C16.6444 18.5801 16.4588 18.6582 16.3221 18.7949L15.4725 19.6641L14.6522 20.4941L14.7206 18.9609V15.5039Z" fill="#C7C7CC"/>
<path d="M22.0936 11.6758H15.1698C14.8084 11.6758 14.6327 11.5 14.6327 11.1484V4.10742C15.0428 4.17578 15.4432 4.45898 15.9022 4.92773L21.283 10.4062C21.7518 10.8848 22.035 11.2754 22.0936 11.6758Z" fill="#C7C7CC"/>
</svg>
