<svg width="28" height="28" viewBox="0 0 28 28" fill="none" xmlns="http://www.w3.org/2000/svg">
<path fill-rule="evenodd" clip-rule="evenodd" d="M23.9219 13.9609C23.9219 19.4102 19.4102 23.9218 13.9609 23.9218C8.52148 23.9218 4 19.4102 4 13.9609C4 8.52148 8.51172 4 13.9512 4C19.4004 4 23.9219 8.52148 23.9219 13.9609ZM8.39453 17.5938C8.39453 18.0626 8.66797 18.3066 8.95117 18.3066C9.18555 18.3066 9.43945 18.248 9.61523 17.9062C10.5625 16.1386 11.8809 15.6015 13.9805 15.6015H14.1367V17.6816C14.1367 18.0332 14.4004 18.3066 14.7715 18.3066C15.0449 18.3066 15.25 18.1895 15.5039 17.955L19.7812 13.9316C19.9961 13.7363 20.0645 13.541 20.0645 13.3457C20.0645 13.1602 19.9961 12.9648 19.7812 12.7695L15.5039 8.77539C15.2207 8.50195 15.0547 8.39453 14.7812 8.39453C14.4004 8.39453 14.1367 8.6875 14.1367 9.04883V11.0996H13.9805C10.1035 11.0996 8.39453 13.5801 8.39453 17.5938Z" fill="#C7C7CC"/>
</svg>
