<svg width="28" height="28" viewBox="0 0 28 28" fill="none" xmlns="http://www.w3.org/2000/svg">
<path fill-rule="evenodd" clip-rule="evenodd" d="M13.961 23.9219C8.5215 23.9219 4.00001 19.4102 4.00001 13.9609C4.00002 8.52148 8.5215 4 13.961 4C19.4102 4 23.9219 8.51172 23.9219 13.9512C23.9219 19.4004 19.4102 23.9219 13.961 23.9219ZM18.3262 14.7324C18.7754 14.7324 19.0879 14.4199 19.0879 13.9707C19.0879 13.5312 18.7754 13.209 18.3262 13.209L13.3164 13.209L11.1778 13.2969L12.3887 12.291L13.5899 11.0996C13.7364 10.9629 13.8145 10.7676 13.8145 10.5625C13.8145 10.1426 13.502 9.83008 13.0821 9.83008C12.8672 9.83008 12.6914 9.88867 12.5547 10.0254L9.21486 13.3848C9.00978 13.5898 8.92189 13.7559 8.92189 13.9707C8.92189 14.1953 9.01961 14.3711 9.21486 14.5664L12.5547 17.916C12.6914 18.0527 12.8672 18.1309 13.0821 18.1309C13.502 18.1309 13.8145 17.8086 13.8145 17.3887C13.8145 17.1738 13.7461 16.9883 13.5899 16.8516L12.3887 15.6699L11.168 14.6445L13.3164 14.7324L18.3262 14.7324Z" fill="#C7C7CC"/>
</svg>
