<svg width="28" height="28" viewBox="0 0 28 28" fill="none" xmlns="http://www.w3.org/2000/svg">
<path d="M5.89844 12.9004C6.41602 12.9004 6.78711 12.5098 6.78711 11.9922V11.1719L6.5918 7.76367L9.16016 10.4688L12.168 13.4961C12.334 13.6719 12.5488 13.75 12.7832 13.75C13.3398 13.75 13.75 13.3887 13.75 12.8418C13.75 12.5781 13.6621 12.3438 13.4863 12.168L10.4688 9.16016L7.76367 6.5918L11.1816 6.78711H11.9922C12.5098 6.78711 12.9102 6.42578 12.9102 5.89844C12.9102 5.37109 12.5195 5 11.9922 5H6.57227C5.57617 5 5 5.57617 5 6.57227V11.9922C5 12.5 5.38086 12.9004 5.89844 12.9004ZM16.6113 23.6328H22.0312C23.0273 23.6328 23.6133 23.0566 23.6133 22.0605V16.6406C23.6133 16.1328 23.2324 15.7324 22.7051 15.7324C22.1973 15.7324 21.8164 16.123 21.8164 16.6406V17.4609L22.0215 20.8691L19.4434 18.1641L16.4453 15.1367C16.2793 14.9609 16.0547 14.8828 15.8203 14.8828C15.2734 14.8828 14.8535 15.2441 14.8535 15.791C14.8535 16.0547 14.9512 16.2891 15.127 16.4648L18.1348 19.4727L20.8496 22.041L17.4316 21.8457H16.6113C16.0938 21.8457 15.6934 22.207 15.6934 22.7344C15.6934 23.2617 16.0938 23.6328 16.6113 23.6328Z" fill="#C7C7CC"/>
</svg>
