<svg width="28" height="28" viewBox="0 0 28 28" fill="none" xmlns="http://www.w3.org/2000/svg">
<path d="M5 13.4414C5 13.9492 5.35156 14.3105 5.85938 14.3105H15.7324L17.8223 14.2422L14.6094 17.1719L12.4512 19.3594C12.2852 19.5254 12.207 19.7598 12.207 19.9941C12.207 20.4824 12.5781 20.834 13.0566 20.834C13.3008 20.834 13.5156 20.7461 13.7109 20.5508L20.1855 14.0957C20.3809 13.9102 20.4883 13.6758 20.4883 13.4414C20.4883 13.1973 20.3809 12.9727 20.1855 12.7773L13.7109 6.32227C13.5156 6.12695 13.3008 6.0293 13.0566 6.0293C12.5781 6.0293 12.207 6.39062 12.207 6.87891C12.207 7.11328 12.2852 7.34766 12.4512 7.50391L14.6094 9.70117L17.8125 12.6406L15.7324 12.5625H5.85938C5.35156 12.5625 5 12.9238 5 13.4414ZM20.459 20.0332C20.459 20.5312 20.8203 20.873 21.3379 20.873C21.8457 20.873 22.207 20.5312 22.207 20.0332V6.85938C22.207 6.35156 21.8457 6 21.3379 6C20.8203 6 20.459 6.35156 20.459 6.85938V20.0332Z" fill="#C7C7CC"/>
</svg>
