<svg width="28" height="28" viewBox="0 0 28 28" fill="none" xmlns="http://www.w3.org/2000/svg">
<path d="M20.6562 23.0725L25.5781 18.0237C25.7539 17.8577 25.8516 17.6038 25.8516 17.3792C25.8516 16.8616 25.5 16.5198 24.9922 16.5198C24.7383 16.5198 24.5527 16.5979 24.3867 16.7639L22.3555 18.8635L20.7832 20.6897L20.8711 18.4338V5.88501C20.8711 5.3772 20.5098 5.0061 20.002 5.0061C19.4844 5.0061 19.123 5.3772 19.123 5.88501V18.4338L19.2207 20.6897L17.6484 18.8635L15.6172 16.7639C15.4512 16.5979 15.2559 16.5198 15.0117 16.5198C14.5039 16.5198 14.1426 16.8616 14.1426 17.3792C14.1426 17.6038 14.25 17.8577 14.4258 18.0237L19.3477 23.0725C19.709 23.4534 20.2754 23.4631 20.6562 23.0725Z" fill="#C7C7CC"/>
<path d="M8.20508 5.29906L3.27344 10.3284C3.10742 10.5041 3 10.758 3 10.9729C3 11.4905 3.35156 11.842 3.85938 11.842C4.11328 11.842 4.30859 11.7541 4.47461 11.5881L6.50586 9.48851L8.07812 7.6721L7.98047 9.92796V22.4768C7.98047 22.9944 8.3418 23.3557 8.85938 23.3557C9.36719 23.3557 9.72852 22.9944 9.72852 22.4768V9.92796L9.64062 7.6721L11.2031 9.48851L13.2441 11.5881C13.4102 11.7541 13.5957 11.842 13.8496 11.842C14.3574 11.842 14.709 11.4905 14.709 10.9729C14.709 10.758 14.6113 10.5041 14.4355 10.3284L9.51367 5.29906C9.15234 4.9182 8.57617 4.89867 8.20508 5.29906Z" fill="#C7C7CC"/>
</svg>
