<svg width="28" height="28" viewBox="0 0 28 28" fill="none" xmlns="http://www.w3.org/2000/svg">
<path d="M5 14.4023C5 14.6465 5.10742 14.8711 5.30273 15.0566L11.7871 21.5312C11.9824 21.7168 12.1875 21.8047 12.4219 21.8047C12.9004 21.8047 13.2812 21.4531 13.2812 20.9648C13.2812 20.7305 13.1934 20.4961 13.0371 20.3496L10.8496 18.123L6.98242 14.5977L6.77734 15.0762L9.92188 15.2715H22.2754C22.7832 15.2715 23.1348 14.9102 23.1348 14.4023C23.1348 13.8945 22.7832 13.5332 22.2754 13.5332H9.92188L6.77734 13.7285L6.98242 14.2168L10.8496 10.6816L13.0371 8.45508C13.1934 8.29883 13.2812 8.07422 13.2812 7.83984C13.2812 7.35156 12.9004 7 12.4219 7C12.1875 7 11.9824 7.07812 11.7676 7.29297L5.30273 13.7481C5.10742 13.9336 5 14.1582 5 14.4023Z" fill="#C7C7CC"/>
</svg>
