<svg width="28" height="28" viewBox="0 0 28 28" fill="none" xmlns="http://www.w3.org/2000/svg">
<path d="M6.47461 20.6406H21.9531C22.8711 20.6406 23.4277 20.1719 23.4277 19.459C23.4277 18.4824 22.4316 17.6035 21.5918 16.7344C20.9473 16.0605 20.7715 14.6738 20.6934 13.5508C20.625 9.80078 19.6289 7.22266 17.0312 6.28516C16.6602 5.00586 15.6543 4 14.209 4C12.7734 4 11.7578 5.00586 11.3965 6.28516C8.79883 7.22266 7.80273 9.80078 7.73438 13.5508C7.65625 14.6738 7.48047 16.0605 6.83594 16.7344C5.98633 17.6035 5 18.4824 5 19.459C5 20.1719 5.54688 20.6406 6.47461 20.6406ZM14.209 24.5566C15.8691 24.5566 17.0801 23.3457 17.207 21.9785H11.2207C11.3477 23.3457 12.5586 24.5566 14.209 24.5566Z" fill="#C7C7CC"/>
</svg>
