<svg width="28" height="28" viewBox="0 0 28 28" fill="none" xmlns="http://www.w3.org/2000/svg">
<path d="M4.785 19.369C4.785 20.0819 5.33188 20.5506 6.25961 20.5506H10.3807C10.4588 22.4354 11.9334 24.0858 13.994 24.0858C16.0643 24.0858 17.5389 22.4452 17.617 20.5506H21.7381C22.6561 20.5506 23.2127 20.0819 23.2127 19.369C23.2127 18.3924 22.2166 17.5135 21.3768 16.6444C20.7323 15.9705 20.5565 14.5838 20.4784 13.4608C20.41 9.61312 19.4139 7.13266 16.8162 6.19516C16.4842 4.91586 15.4393 3.91 13.994 3.91C12.5584 3.91 11.5038 4.91586 11.1815 6.19516C8.58383 7.13266 7.58773 9.61312 7.51938 13.4608C7.44125 14.5838 7.26547 15.9705 6.62094 16.6444C5.77133 17.5135 4.785 18.3924 4.785 19.369ZM6.67953 19.076V18.9588C6.85531 18.6756 7.44125 18.0995 7.94906 17.533C8.65219 16.7518 8.98422 15.492 9.07211 13.5877C9.15023 9.32016 10.4198 7.96273 12.0897 7.50375C12.3338 7.44516 12.4706 7.32797 12.4803 7.07406C12.5096 6.05844 13.0956 5.34555 13.994 5.34555C14.9022 5.34555 15.4784 6.05844 15.5174 7.07406C15.5272 7.32797 15.6541 7.44516 15.8983 7.50375C17.578 7.96273 18.8475 9.32016 18.9256 13.5877C19.0135 15.492 19.3455 16.7518 20.0389 17.533C20.5565 18.0995 21.1327 18.6756 21.3084 18.9588V19.076H6.67953ZM11.9041 20.5506H16.0936C16.0155 21.8788 15.1756 22.7088 13.994 22.7088C12.8221 22.7088 11.9725 21.8788 11.9041 20.5506Z" fill="#C7C7CC"/>
</svg>
