<svg width="28" height="28" viewBox="0 0 28 28" fill="none" xmlns="http://www.w3.org/2000/svg">
<path d="M9.65039 20.9648H14.7383C17.7266 20.9648 19.6113 19.3926 19.6113 16.9805C19.6113 15.0762 18.2344 13.6992 16.252 13.5918V13.5137C17.8731 13.2891 18.9766 12.0684 18.9766 10.5156C18.9766 8.33789 17.3066 7 14.6016 7H9.65039C8.60547 7 8 7.61523 8 8.68945V19.2852C8 20.3496 8.60547 20.9648 9.65039 20.9648ZM11.2227 18.709V14.832H13.6738C15.3828 14.832 16.3398 15.4961 16.3398 16.7461C16.3398 18.0254 15.4219 18.709 13.7422 18.709H11.2227ZM11.2227 12.8008V9.29492H13.625C14.9922 9.29492 15.8027 9.91992 15.8027 10.9941C15.8027 12.1269 14.9043 12.8008 13.3809 12.8008H11.2227Z" fill="#C7C7CC"/>
</svg>
