<svg width="28" height="28" viewBox="0 0 28 28" fill="none" xmlns="http://www.w3.org/2000/svg">
<path d="M8.99805 24.9277H21.6445C22.0742 24.9277 22.4258 24.5859 22.4258 24.1465C22.4258 23.8047 22.1914 23.502 21.8789 23.3945C20.6484 22.9062 20.3945 21.3145 21.6055 20.0938C21.9766 19.7227 22.4258 19.2441 22.4258 18.2676V7.06641C22.4258 5.03516 21.4199 4 19.3984 4H9.02734C7.00586 4 6 5.02539 6 7.06641V21.9102C6 23.9219 7.01562 24.9277 8.99805 24.9277ZM9.08594 23.3555C8.09961 23.3555 7.57227 22.8281 7.57227 21.9004C7.57227 21.0215 8.19727 20.4551 9.17383 20.4551H19.1934C19.3203 20.4551 19.4375 20.4453 19.5352 20.4258C19.0762 21.4414 19.1543 22.5156 19.6719 23.3555H9.08594ZM8.79297 18.9707C8.49023 18.9707 8.23633 18.7168 8.23633 18.4043V6.07031C8.23633 5.75781 8.49023 5.51367 8.79297 5.51367C9.0957 5.51367 9.35938 5.75781 9.35938 6.07031V18.4043C9.35938 18.7168 9.0957 18.9707 8.79297 18.9707Z" fill="#C7C7CC"/>
</svg>
