<svg width="28" height="28" viewBox="0 0 28 28" fill="none" xmlns="http://www.w3.org/2000/svg">
<path d="M8.50781 5C6.35938 5 4.12305 5.99609 3.11719 7.72461C3.00977 7.91992 3 8.04688 3 8.4082V22.1875C3 22.6367 3.2832 22.9102 3.77148 22.9102C4.00586 22.9102 4.23047 22.8418 4.40625 22.6758C5.63672 21.6211 7.26758 21.0742 8.89844 21.0742C10.4219 21.0742 11.8379 21.6113 12.873 22.5C12.9805 22.5879 13.1074 22.6367 13.2148 22.6367C13.4297 22.6367 13.6055 22.4805 13.6055 22.2266V7.7832C13.6055 7.5293 13.5859 7.4707 13.4004 7.20703C12.4434 5.83008 10.5684 5 8.50781 5ZM19.9824 5C17.9219 5 16.0469 5.83008 15.0898 7.20703C14.9043 7.4707 14.8848 7.5293 14.8848 7.7832V22.2266C14.8848 22.4805 15.0605 22.6367 15.2754 22.6367C15.3828 22.6367 15.5195 22.5879 15.6172 22.5C16.6523 21.6113 18.0684 21.0742 19.5918 21.0742C21.2227 21.0742 22.8535 21.6211 24.084 22.6758C24.2598 22.8418 24.4844 22.9102 24.7188 22.9102C25.207 22.9102 25.4902 22.6367 25.4902 22.1875V8.4082C25.4902 8.04688 25.4805 7.91016 25.373 7.72461C24.3672 5.99609 22.1309 5 19.9824 5Z" fill="#C7C7CC"/>
</svg>
