<svg width="28" height="28" viewBox="0 0 28 28" fill="none" xmlns="http://www.w3.org/2000/svg">
<path d="M19.5448 24.9473C19.0663 24.9473 18.7831 24.6738 17.9042 23.8242L14.0859 20.0645C14.037 20.0156 13.9491 20.0156 13.9101 20.0645L10.0917 23.8242C9.2128 24.6738 8.9296 24.9473 8.4511 24.9473C7.7968 24.9473 7.4159 24.5176 7.4159 23.7559V6.80273C7.4159 4.94727 8.3437 4 10.1796 4H17.8163C19.6523 4 20.58 4.94727 20.58 6.80273V23.7559C20.58 24.5176 20.1991 24.9473 19.5448 24.9473ZM18.7441 22.3105C18.8808 22.4473 19.037 22.4082 19.037 22.2129V6.82227C19.037 5.98242 18.5976 5.54297 17.7382 5.54297H10.248C9.3984 5.54297 8.9589 5.98242 8.9589 6.82227V22.2129C8.9589 22.4082 9.1054 22.4473 9.2519 22.3105L13.4804 18.209C13.7929 17.9062 14.2031 17.9062 14.5156 18.209L18.7441 22.3105Z" fill="#C7C7CC"/>
</svg>
