<svg width="28" height="28" viewBox="0 0 28 28" fill="none" xmlns="http://www.w3.org/2000/svg">
<path d="M12.4802 17.4316C11.7966 17.4316 11.3962 17.0508 11.3962 16.3672V15.5762C8.52509 15.3809 5.66376 14.7949 2.69501 13.6719V12.0606C6.34735 13.6621 10.0095 14.2285 13.9938 14.2285C17.988 14.2285 21.6501 13.6621 25.3024 12.0606V13.6719C22.3337 14.7949 19.4723 15.3809 16.6012 15.5762V16.3672C16.6012 17.0508 16.2009 17.4316 15.5173 17.4316H12.4802ZM5.71259 23.9258H22.2848C24.3063 23.9258 25.3024 22.9492 25.3024 20.9473V11.4453C25.3024 9.44336 24.3063 8.4668 22.2848 8.4668H5.71259C3.70087 8.4668 2.69501 9.44336 2.69501 11.4453V20.9473C2.69501 22.9492 3.70087 23.9258 5.71259 23.9258ZM9.04267 9.31641H10.5563V7.58789C10.5563 6.8457 10.9958 6.42578 11.7575 6.42578H16.2399C17.0016 6.42578 17.4313 6.8457 17.4313 7.58789V9.29688H18.945V7.69531C18.945 5.85938 17.9782 5 16.2106 5H11.777C10.1071 5 9.04267 5.85938 9.04267 7.69531V9.31641Z" fill="#C7C7CC"/>
</svg>
