<svg width="28" height="28" viewBox="0 0 28 28" fill="none" xmlns="http://www.w3.org/2000/svg">
<path fill-rule="evenodd" clip-rule="evenodd" d="M18.0733 24.1582H23.7051C24.7012 24.1582 25.3164 23.4648 25.3164 22.3809V9.91992C25.3164 8.83594 24.7012 8.14258 23.7051 8.14258H18.5488V22.3809C18.5488 23.0536 18.3795 23.6619 18.0733 24.1582ZM20.7656 13.084C20.7656 13.2891 20.8926 13.4355 21.1074 13.4355H22.7285C22.9336 13.4355 23.0703 13.2891 23.0703 13.084V11.5215C23.0703 11.3164 22.9336 11.1797 22.7285 11.1797H21.1074C20.8926 11.1797 20.7656 11.3164 20.7656 11.5215V13.084ZM20.7656 16.9316C20.7656 17.1367 20.8926 17.2734 21.1074 17.2734H22.7285C22.9336 17.2734 23.0703 17.1367 23.0703 16.9316V15.3691C23.0703 15.1641 22.9336 15.0273 22.7285 15.0273H21.1074C20.8926 15.0273 20.7656 15.1641 20.7656 15.3691V16.9316ZM20.7656 20.7793C20.7656 20.9844 20.8926 21.1211 21.1074 21.1211H22.7285C22.9336 21.1211 23.0703 20.9844 23.0703 20.7793V19.2168C23.0703 19.0117 22.9336 18.8652 22.7285 18.8652H21.1074C20.8926 18.8652 20.7656 19.0117 20.7656 19.2168V20.7793Z" fill="#C7C7CC"/>
<path d="M2.32812 22.3809C2.32812 23.4648 2.95312 24.1582 3.94922 24.1582H15.5996C16.5859 24.1582 17.2109 23.4648 17.2109 22.3809V5.11523C17.2109 4.03125 16.5859 3.33789 15.5996 3.33789H3.94922C2.95312 3.33789 2.32812 4.03125 2.32812 5.11523V22.3809ZM6.39062 22.5859V19.4121C6.39062 18.9629 6.68359 18.6699 7.14258 18.6699H12.4941C12.9531 18.6699 13.2363 18.9629 13.2363 19.4121V22.5859H6.39062ZM6.06836 8.58203V6.6875C6.06836 6.44336 6.22462 6.26758 6.47853 6.26758H8.42188C8.67578 6.26758 8.84181 6.44336 8.84181 6.6875V8.58203C8.84181 8.83594 8.67578 9.00195 8.42188 9.00195H6.47853C6.22462 9.00195 6.06836 8.83594 6.06836 8.58203ZM10.7852 8.58203V6.6875C10.7852 6.44336 10.9414 6.26758 11.1953 6.26758H13.1387C13.3926 6.26758 13.5586 6.44336 13.5586 6.6875V8.58203C13.5586 8.83594 13.3926 9.00195 13.1387 9.00195H11.1953C10.9414 9.00195 10.7852 8.83594 10.7852 8.58203ZM6.06836 12.5664V10.6719C6.06836 10.4277 6.22462 10.252 6.47853 10.252H8.42188C8.67578 10.252 8.84181 10.4277 8.84181 10.6719V12.5664C8.84181 12.8203 8.67578 12.9863 8.42188 12.9863H6.47853C6.22462 12.9863 6.06836 12.8203 6.06836 12.5664ZM10.7852 12.5664V10.6719C10.7852 10.4277 10.9414 10.252 11.1953 10.252H13.1387C13.3926 10.252 13.5586 10.4277 13.5586 10.6719V12.5664C13.5586 12.8203 13.3926 12.9863 13.1387 12.9863H11.1953C10.9414 12.9863 10.7852 12.8203 10.7852 12.5664ZM6.06836 16.5508V14.6562C6.06836 14.4023 6.22462 14.2363 6.47853 14.2363H8.42188C8.67578 14.2363 8.84181 14.4023 8.84181 14.6562V16.5508C8.84181 16.7949 8.67578 16.9707 8.42188 16.9707H6.47853C6.22462 16.9707 6.06836 16.7949 6.06836 16.5508ZM10.7852 16.5508V14.6562C10.7852 14.4023 10.9414 14.2363 11.1953 14.2363H13.1387C13.3926 14.2363 13.5586 14.4023 13.5586 14.6562V16.5508C13.5586 16.7949 13.3926 16.9707 13.1387 16.9707H11.1953C10.9414 16.9707 10.7852 16.7949 10.7852 16.5508Z" fill="#C7C7CC"/>
</svg>
