<svg width="28" height="28" viewBox="0 0 28 28" fill="none" xmlns="http://www.w3.org/2000/svg">
<path d="M7.06641 22.998H20.4062C22.4473 22.998 23.4629 21.9824 23.4629 19.9707V8.04688C23.4629 6.03516 22.4473 5.01953 20.4062 5.01953H7.06641C5.02539 5.01953 4 6.02539 4 8.04688V19.9707C4 21.9922 5.02539 22.998 7.06641 22.998ZM6.91992 21.4258C6.05078 21.4258 5.57227 20.9668 5.57227 20.0586V10.8496C5.57227 9.95117 6.05078 9.48242 6.91992 9.48242H20.5332C21.4023 9.48242 21.8906 9.95117 21.8906 10.8496V20.0586C21.8906 20.9668 21.4023 21.4258 20.5332 21.4258H6.91992ZM11.832 12.9883H12.4082C12.75 12.9883 12.8574 12.8906 12.8574 12.5488V11.9727C12.8574 11.6309 12.75 11.5234 12.4082 11.5234H11.832C11.4902 11.5234 11.3731 11.6309 11.3731 11.9727V12.5488C11.3731 12.8906 11.4902 12.9883 11.832 12.9883ZM15.0742 12.9883H15.6504C15.9922 12.9883 16.1094 12.8906 16.1094 12.5488V11.9727C16.1094 11.6309 15.9922 11.5234 15.6504 11.5234H15.0742C14.7324 11.5234 14.6152 11.6309 14.6152 11.9727V12.5488C14.6152 12.8906 14.7324 12.9883 15.0742 12.9883ZM18.3164 12.9883H18.8926C19.2344 12.9883 19.3516 12.8906 19.3516 12.5488V11.9727C19.3516 11.6309 19.2344 11.5234 18.8926 11.5234H18.3164C17.9746 11.5234 17.8672 11.6309 17.8672 11.9727V12.5488C17.8672 12.8906 17.9746 12.9883 18.3164 12.9883ZM8.58984 16.1816H9.15625C9.50781 16.1816 9.61523 16.084 9.61523 15.7422V15.166C9.61523 14.8242 9.50781 14.7266 9.15625 14.7266H8.58984C8.23828 14.7266 8.13086 14.8242 8.13086 15.166V15.7422C8.13086 16.084 8.23828 16.1816 8.58984 16.1816ZM11.832 16.1816H12.4082C12.75 16.1816 12.8574 16.084 12.8574 15.7422V15.166C12.8574 14.8242 12.75 14.7266 12.4082 14.7266H11.832C11.4902 14.7266 11.3731 14.8242 11.3731 15.166V15.7422C11.3731 16.084 11.4902 16.1816 11.832 16.1816ZM15.0742 16.1816H15.6504C15.9922 16.1816 16.1094 16.084 16.1094 15.7422V15.166C16.1094 14.8242 15.9922 14.7266 15.6504 14.7266H15.0742C14.7324 14.7266 14.6152 14.8242 14.6152 15.166V15.7422C14.6152 16.084 14.7324 16.1816 15.0742 16.1816ZM18.3164 16.1816H18.8926C19.2344 16.1816 19.3516 16.084 19.3516 15.7422V15.166C19.3516 14.8242 19.2344 14.7266 18.8926 14.7266H18.3164C17.9746 14.7266 17.8672 14.8242 17.8672 15.166V15.7422C17.8672 16.084 17.9746 16.1816 18.3164 16.1816ZM8.58984 19.3848H9.15625C9.50781 19.3848 9.61523 19.2773 9.61523 18.9355V18.3594C9.61523 18.0176 9.50781 17.9199 9.15625 17.9199H8.58984C8.23828 17.9199 8.13086 18.0176 8.13086 18.3594V18.9355C8.13086 19.2773 8.23828 19.3848 8.58984 19.3848ZM11.832 19.3848H12.4082C12.75 19.3848 12.8574 19.2773 12.8574 18.9355V18.3594C12.8574 18.0176 12.75 17.9199 12.4082 17.9199H11.832C11.4902 17.9199 11.3731 18.0176 11.3731 18.3594V18.9355C11.3731 19.2773 11.4902 19.3848 11.832 19.3848ZM15.0742 19.3848H15.6504C15.9922 19.3848 16.1094 19.2773 16.1094 18.9355V18.3594C16.1094 18.0176 15.9922 17.9199 15.6504 17.9199H15.0742C14.7324 17.9199 14.6152 18.0176 14.6152 18.3594V18.9355C14.6152 19.2773 14.7324 19.3848 15.0742 19.3848Z" fill="#C7C7CC"/>
</svg>
