<svg width="28" height="28" viewBox="0 0 28 28" fill="none" xmlns="http://www.w3.org/2000/svg">
<path d="M4 21.3926C4 21.832 4.36133 22.1738 4.78125 22.1738H23.5801C24.0098 22.1738 24.3711 21.832 24.3711 21.3926C24.3711 20.9629 24.0098 20.6113 23.5801 20.6113H4.78125C4.36133 20.6113 4 20.9629 4 21.3926Z" fill="#C7C7CC"/>
<path d="M19.7324 18.3848C19.7324 18.8926 20.0547 19.1953 20.5918 19.1953H22.7207C23.248 19.1953 23.5801 18.8926 23.5801 18.3848V12.3594C23.5801 11.8516 23.248 11.5391 22.7207 11.5391H20.5918C20.0547 11.5391 19.7324 11.8516 19.7324 12.3594V18.3848Z" fill="#C7C7CC"/>
<path d="M14.752 18.3848C14.752 18.8926 15.0742 19.1953 15.6016 19.1953H17.7402C18.2578 19.1953 18.5898 18.8926 18.5898 18.3848V8.18945C18.5898 7.67188 18.2578 7.36914 17.7402 7.36914H15.6016C15.0742 7.36914 14.752 7.67188 14.752 8.18945V18.3848Z" fill="#C7C7CC"/>
<path d="M9.76172 18.3848C9.76172 18.8926 10.0937 19.1953 10.6211 19.1953H12.75C13.2773 19.1953 13.6094 18.8926 13.6094 18.3848V6.08008C13.6094 5.57227 13.2773 5.26953 12.75 5.26953H10.6211C10.0937 5.26953 9.76172 5.57227 9.76172 6.08008V18.3848Z" fill="#C7C7CC"/>
<path d="M4.78125 18.3848C4.78125 18.8926 5.10352 19.1953 5.64062 19.1953H7.76953C8.28711 19.1953 8.61914 18.8926 8.61914 18.3848V10.3086C8.61914 9.81055 8.28711 9.48828 7.76953 9.48828H5.64062C5.10352 9.48828 4.78125 9.81055 4.78125 10.3086V18.3848Z" fill="#C7C7CC"/>
</svg>
