<svg width="28" height="28" viewBox="0 0 28 28" fill="none" xmlns="http://www.w3.org/2000/svg">
<path d="M21.3198 23.1317H24.23C25.5777 23.1317 26.271 22.4872 26.271 21.2079V6.80359C26.271 5.52429 25.5777 4.87 24.23 4.87H21.3198C19.9917 4.87 19.2984 5.52429 19.2984 6.80359V21.2079C19.2984 22.4872 19.9917 23.1317 21.3198 23.1317Z" fill="#C7C7CC"/>
<path d="M12.5405 23.1317H15.4507C16.7984 23.1317 17.482 22.4872 17.482 21.2079V9.65515C17.482 8.37585 16.7984 7.72155 15.4507 7.72155H12.5405C11.2027 7.72155 10.5093 8.37585 10.5093 9.65515V21.2079C10.5093 22.4872 11.2027 23.1317 12.5405 23.1317Z" fill="#C7C7CC"/>
<path d="M3.76126 23.1317H6.66165C8.00931 23.1317 8.70267 22.4872 8.70267 21.2079V12.4969C8.70267 11.2177 8.00931 10.5634 6.66165 10.5634H3.76126C2.42337 10.5634 1.73001 11.2177 1.73001 12.4969V21.2079C1.73001 22.4872 2.42337 23.1317 3.76126 23.1317Z" fill="#C7C7CC"/>
</svg>
