<svg width="28" height="28" viewBox="0 0 28 28" fill="none" xmlns="http://www.w3.org/2000/svg">
<path fill-rule="evenodd" clip-rule="evenodd" d="M13.96 23.92C19.4608 23.92 23.92 19.4607 23.92 13.96C23.92 8.45923 19.4608 3.99998 13.96 3.99998C8.45924 3.99998 4 8.45923 4 13.96C4 19.4607 8.45924 23.92 13.96 23.92ZM13.7265 17.8992C13.532 18.2008 13.2597 18.3564 12.9387 18.3564C12.6177 18.3564 12.3551 18.2202 12.1119 17.8992L9.73866 14.9812C9.60249 14.7965 9.51495 14.5922 9.51495 14.3782C9.51495 13.9502 9.84565 13.6098 10.2736 13.6098C10.5362 13.6098 10.7502 13.6876 10.9837 13.9989L12.8998 16.4791L16.9364 10.0013C17.1211 9.7192 17.3642 9.56357 17.6172 9.56357C18.0159 9.56357 18.4051 9.84564 18.4051 10.2833C18.4051 10.4973 18.2883 10.7113 18.1716 10.9058L13.7265 17.8992Z" fill="#C7C7CC"/>
</svg>
