<svg width="28" height="28" viewBox="0 0 28 28" fill="none" xmlns="http://www.w3.org/2000/svg">
<path d="M14.3929 20.387H24.1976C24.6077 20.387 24.9495 20.0647 24.9495 19.6546C24.9495 19.2347 24.6077 18.9124 24.1976 18.9124H14.3929C13.9827 18.9124 13.6507 19.2347 13.6507 19.6546C13.6507 20.0647 13.9827 20.387 14.3929 20.387Z" fill="#C7C7CC"/>
<path d="M7.26397 23.8636C9.5589 23.8636 11.473 21.9495 11.473 19.6546C11.473 17.3401 9.5589 15.4358 7.26397 15.4358C4.95929 15.4358 3.05499 17.3499 3.05499 19.6546C3.05499 21.9495 4.96905 23.8636 7.26397 23.8636ZM7.26397 22.4378C5.7503 22.4378 4.48077 21.1585 4.48077 19.6546C4.48077 18.1409 5.76007 16.8616 7.26397 16.8616C8.76788 16.8616 10.0472 18.1409 10.0472 19.6546C10.0472 21.1585 8.76788 22.4378 7.26397 22.4378Z" fill="#C7C7CC"/>
<path d="M14.3929 9.09793H24.1976C24.6077 9.09793 24.9495 8.77567 24.9495 8.35575C24.9495 7.94559 24.6077 7.62332 24.1976 7.62332H14.3929C13.9827 7.62332 13.6507 7.94559 13.6507 8.35575C13.6507 8.77567 13.9827 9.09793 14.3929 9.09793Z" fill="#C7C7CC"/>
<path d="M7.26397 12.555C9.5589 12.555 11.473 10.6507 11.473 8.35575C11.473 6.05106 9.5589 4.13699 7.26397 4.13699C4.95929 4.13699 3.05499 6.05106 3.05499 8.35575C3.05499 10.6507 4.96905 12.555 7.26397 12.555ZM6.76593 10.6116C6.56085 10.6116 6.42413 10.5042 6.27765 10.3382L5.1839 9.01981C5.08624 8.91239 5.05694 8.7952 5.05694 8.63895C5.05694 8.35575 5.27179 8.13114 5.53546 8.13114C5.72101 8.13114 5.85772 8.20926 5.98468 8.37528L6.7464 9.34208L8.48468 6.54911C8.60187 6.37332 8.74835 6.27567 8.92413 6.27567C9.19757 6.27567 9.43194 6.49051 9.43194 6.73465C9.43194 6.87137 9.39288 6.98856 9.30499 7.13504L7.26397 10.3382C7.15655 10.5139 6.98077 10.6116 6.76593 10.6116Z" fill="#C7C7CC"/>
</svg>
