<svg width="28" height="28" viewBox="0 0 28 28" fill="none" xmlns="http://www.w3.org/2000/svg">
<path d="M11.4631 23.2098C11.9547 23.3465 12.4 23.0633 12.5484 22.5457L17.1677 5.87579C17.2976 5.40704 17.0842 4.93829 16.5926 4.80157C16.1103 4.66485 15.6929 4.86017 15.5259 5.46564L10.9344 22.0477C10.7859 22.575 10.9437 23.0633 11.4631 23.2098Z" fill="#C7C7CC"/>
<path d="M1 13.991C1 14.2645 1.11131 14.5282 1.32465 14.7235L7.52088 20.6121C7.91046 20.9832 8.42991 20.9832 8.75456 20.6023C9.07922 20.2117 9.02356 19.6648 8.65253 19.3133L3.07778 13.991L8.65253 8.66877C9.02356 8.31721 9.07922 7.76057 8.75456 7.37971C8.42991 6.99885 7.91046 6.99885 7.52088 7.36994L1.32465 13.2489C1.11131 13.4539 1 13.7176 1 13.991ZM27 13.991C27 13.7176 26.898 13.4539 26.6847 13.2489L20.4885 7.36994C20.0896 6.99885 19.5794 6.99885 19.2548 7.37971C18.9302 7.76057 18.9765 8.31721 19.3475 8.66877L24.9315 13.991L19.3475 19.3133C18.9765 19.6648 18.9302 20.2117 19.2548 20.6023C19.5794 20.9832 20.0896 20.9832 20.4885 20.6121L26.6847 14.7235C26.898 14.5282 27 14.2645 27 13.991Z" fill="#C7C7CC"/>
</svg>
