<svg width="28" height="28" viewBox="0 0 28 28" fill="none" xmlns="http://www.w3.org/2000/svg">
<path d="M14.4863 18.5508C14.7305 18.5508 14.9746 18.4531 15.1406 18.2676L22.6992 10.5234C22.8652 10.3574 22.9629 10.1426 22.9629 9.89844C22.9629 9.39062 22.582 9 22.0742 9C21.8301 9 21.6055 9.09766 21.4395 9.25391L13.959 16.9004H15.0039L7.52344 9.25391C7.36719 9.09766 7.14258 9 6.88867 9C6.38086 9 6 9.39062 6 9.89844C6 10.1426 6.09766 10.3574 6.26367 10.5332L13.8223 18.2676C14.0078 18.4531 14.2324 18.5508 14.4863 18.5508Z" fill="#C7C7CC"/>
</svg>
