<svg width="28" height="28" viewBox="0 0 28 28" fill="none" xmlns="http://www.w3.org/2000/svg">
<path d="M5.66992 13.9609C5.66992 13.0723 5.80664 12.2129 6.06055 11.4219L4.52734 10.7773C4.19531 11.7832 4 12.8477 4 13.9609C4 15.0645 4.19531 16.1387 4.53711 17.1445L6.06055 16.5C5.80664 15.709 5.66992 14.8496 5.66992 13.9609ZM10.1621 6.55859L9.53711 5.05469C7.60352 6.02148 6.01172 7.61328 5.04492 9.54688L6.56836 10.1816C7.34961 8.62891 8.61914 7.35938 10.1621 6.55859ZM13.9512 5.66016C14.8398 5.66016 15.6992 5.79688 16.5098 6.06055L17.1348 4.53711C16.1289 4.19531 15.0547 4 13.9512 4C12.8477 4 11.7637 4.19531 10.7578 4.53711L11.4023 6.06055C12.2031 5.79688 13.0625 5.66016 13.9512 5.66016ZM21.3535 10.1719L22.8672 9.54688C21.8906 7.61328 20.2988 6.02148 18.3652 5.04492L17.7402 6.55859C19.2832 7.34961 20.5625 8.61914 21.3535 10.1719ZM22.2617 13.9609C22.2617 14.8496 22.125 15.709 21.8711 16.5098L23.3848 17.1543C23.7266 16.1484 23.9219 15.0645 23.9219 13.9609C23.9219 12.8477 23.7266 11.7734 23.3848 10.7676L21.8613 11.4121C22.125 12.2129 22.2617 13.0723 22.2617 13.9609ZM17.7402 21.3535L18.3652 22.877C20.3086 21.9004 21.9004 20.3086 22.8574 18.375L21.3633 17.75C20.5723 19.3027 19.293 20.5625 17.7402 21.3535ZM13.9609 22.2617C13.0625 22.2617 12.2031 22.125 11.4023 21.8613L10.7676 23.3848C11.7734 23.7266 12.8574 23.9219 13.9609 23.9219C15.0645 23.9219 16.1387 23.7266 17.1348 23.3945L16.5 21.8711C15.6992 22.125 14.8496 22.2617 13.9609 22.2617ZM6.56836 17.75L5.05469 18.375C6.03125 20.3086 7.60352 21.9004 9.53711 22.8672L10.1621 21.3438C8.61914 20.5527 7.34961 19.293 6.56836 17.75Z" fill="#C7C7CC"/>
</svg>
