<svg width="28" height="28" viewBox="0 0 28 28" fill="none" xmlns="http://www.w3.org/2000/svg">
<path d="M13.9927 25.5793C16.3266 25.5793 18.2505 23.6555 18.2505 21.3215C18.2505 18.9973 16.3266 17.0734 13.9927 17.0734C11.6489 17.0734 9.73485 18.9973 9.73485 21.3215C9.73485 23.6555 11.6489 25.5793 13.9927 25.5793Z" fill="#C7C7CC"/>
<path d="M21.102 18.2551C23.4262 18.2551 25.3501 16.3312 25.3501 13.9973C25.3501 11.673 23.4262 9.74921 21.102 9.74921C18.7485 9.74921 16.8345 11.673 16.8345 13.9973C16.8345 16.3312 18.7485 18.2551 21.102 18.2551Z" fill="#C7C7CC"/>
<path d="M6.90281 18.2551C9.2368 18.2551 11.1606 16.3312 11.1606 13.9973C11.1606 11.673 9.2368 9.74921 6.90281 9.74921C4.5493 9.74921 2.645 11.673 2.645 13.9973C2.645 16.3312 4.5493 18.2551 6.90281 18.2551Z" fill="#C7C7CC"/>
<path d="M13.9927 10.9308C16.3266 10.9308 18.2505 9.00702 18.2505 6.67304C18.2505 4.33905 16.3266 2.42499 13.9927 2.42499C11.6489 2.42499 9.73485 4.33905 9.73485 6.67304C9.73485 9.00702 11.6489 10.9308 13.9927 10.9308Z" fill="#C7C7CC"/>
</svg>
