<svg width="28" height="28" viewBox="0 0 28 28" fill="none" xmlns="http://www.w3.org/2000/svg">
<path d="M8.85352 15.0156C8.46289 15.0156 8.16992 14.7227 8.16992 14.332C8.16992 13.9512 8.46289 13.6582 8.85352 13.6582H13.2773V7.75C13.2773 7.36914 13.5703 7.07617 13.9512 7.07617C14.332 7.07617 14.6348 7.36914 14.6348 7.75V14.332C14.6348 14.7227 14.332 15.0156 13.9512 15.0156H8.85352ZM13.9609 23.9219C19.4102 23.9219 23.9219 19.4004 23.9219 13.9609C23.9219 8.51172 19.4004 4 13.9512 4C8.51172 4 4 8.51172 4 13.9609C4 19.4004 8.52148 23.9219 13.9609 23.9219Z" fill="#C7C7CC"/>
</svg>
