<svg width="28" height="28" viewBox="0 0 28 28" fill="none" xmlns="http://www.w3.org/2000/svg">
<path d="M14.0009 23.9619C19.4502 23.9619 23.9619 19.4404 23.9619 14.0009C23.9619 8.55173 19.4404 4.04001 13.9912 4.04001C8.55171 4.04001 4.03999 8.55173 4.03999 14.0009C4.03999 19.4404 8.56147 23.9619 14.0009 23.9619ZM14.0009 22.3017C9.39155 22.3017 5.70991 18.6103 5.70991 14.0009C5.70991 9.39157 9.38179 5.70017 13.9912 5.70017C18.6005 5.70017 22.3017 9.39157 22.3017 14.0009C22.3017 18.6103 18.6103 22.3017 14.0009 22.3017ZM20.6806 20.4365L20.6513 20.3291C20.1728 18.8935 17.5947 17.3212 14.0009 17.3212C10.4169 17.3212 7.83882 18.8935 7.35054 20.3193L7.32124 20.4365C9.07905 22.1748 12.0966 23.1904 14.0009 23.1904C15.915 23.1904 18.9033 22.1845 20.6806 20.4365ZM14.0009 15.6611C15.8857 15.6806 17.3505 14.0791 17.3505 11.9795C17.3505 10.0068 15.8759 8.37595 14.0009 8.37595C12.1259 8.37595 10.6416 10.0068 10.6513 11.9795C10.6611 14.0791 12.1259 15.6416 14.0009 15.6611Z" fill="#C7C7CC"/>
</svg>
