<svg width="28" height="28" viewBox="0 0 28 28" fill="none" xmlns="http://www.w3.org/2000/svg">
<path d="M13.9121 13.0586L23.1113 7.83398C22.9648 7.6875 22.7891 7.57031 22.5742 7.45312L15.6797 3.52734C15.084 3.18555 14.4883 3 13.9121 3C13.3262 3 12.7305 3.18555 12.1348 3.52734L5.25 7.45312C5.03516 7.57031 4.85938 7.6875 4.70312 7.83398L13.9121 13.0586ZM13.2383 24.25V14.2305L4.07812 8.99609C4.01953 9.21094 4 9.44531 4 9.73828V17.3457C4 18.7617 4.49805 19.2891 5.39648 19.8066L13.0527 24.1621C13.1113 24.2012 13.1699 24.2305 13.2383 24.25ZM14.5762 24.25C14.6445 24.2305 14.7031 24.2012 14.7715 24.1621L22.418 19.8066C23.3262 19.2891 23.8145 18.7617 23.8145 17.3457V9.73828C23.8145 9.44531 23.7949 9.21094 23.7363 8.99609L14.5762 14.2305V24.25Z" fill="#C7C7CC"/>
</svg>
