<svg width="28" height="28" viewBox="0 0 28 28" fill="none" xmlns="http://www.w3.org/2000/svg">
<path d="M9.20297 12.4655C8.8807 12.4655 8.68539 12.28 8.68539 11.9675C8.68539 11.8991 8.70492 11.7624 8.75375 11.6452L10.1893 7.67062C10.3358 7.26047 10.5702 7.06516 10.9608 7.06516C11.3807 7.06516 11.6248 7.26047 11.7713 7.67062L13.2069 11.6452C13.2459 11.7722 13.2655 11.8991 13.2655 11.9675C13.2655 12.28 13.0799 12.4655 12.7479 12.4655C12.494 12.4655 12.328 12.3191 12.2401 11.9968L11.8885 11.03H10.0526L9.72055 11.9968C9.63266 12.3288 9.46664 12.4655 9.20297 12.4655ZM10.2772 10.2194H11.6737L10.9998 8.16867H10.9413L10.2772 10.2194ZM15.3553 8.75461C14.994 8.75461 14.7401 8.49094 14.7401 8.14914C14.7401 7.81711 14.994 7.55344 15.3553 7.55344H18.7245C19.0662 7.55344 19.3299 7.81711 19.3299 8.14914C19.3299 8.49094 19.0662 8.75461 18.7245 8.75461H15.3553ZM15.3553 12.1628C14.994 12.1628 14.7401 11.8991 14.7401 11.5573C14.7401 11.2253 14.994 10.9616 15.3553 10.9616H18.7245C19.0662 10.9616 19.3299 11.2253 19.3299 11.5573C19.3299 11.8991 19.0662 12.1628 18.7245 12.1628H15.3553ZM8.63656 20.6296V15.864C8.63656 15.0046 9.12484 14.5652 9.95492 14.5652H18.0506C18.91 14.5652 19.3592 15.0046 19.3592 15.864V20.532H18.285L16.3319 18.2859C16.1561 18.0808 15.9022 18.0027 15.6581 18.0027C15.4334 18.0027 15.1991 18.0905 14.9745 18.2859L12.9725 20.0632L12.1717 19.3308C11.9862 19.1648 11.7713 19.0866 11.576 19.0866C11.3807 19.0866 11.1854 19.155 10.9998 19.3308L9.71078 20.6296H8.63656ZM12.2498 18.2859C12.826 18.2859 13.3045 17.7976 13.3045 17.2312C13.3045 16.6452 12.826 16.196 12.2498 16.1765C11.6639 16.157 11.1952 16.6452 11.1952 17.2312C11.1952 17.7976 11.6639 18.2859 12.2498 18.2859ZM5.785 21.4109C5.785 23.4519 6.79086 24.4675 8.81234 24.4675H19.1834C21.2049 24.4675 22.2108 23.4519 22.2108 21.4109V6.59641C22.2108 4.56516 21.2049 3.53 19.1834 3.53H8.81234C6.79086 3.53 5.785 4.56516 5.785 6.59641V21.4109Z" fill="#C7C7CC"/>
</svg>
