<svg width="28" height="28" viewBox="0 0 28 28" fill="none" xmlns="http://www.w3.org/2000/svg">
<path d="M21.2572 15.8512C22.2826 15.8512 23.1127 15.0309 23.1127 14.0055C23.1127 12.9801 22.2826 12.15 21.2572 12.15C20.2318 12.15 19.4017 12.9801 19.4017 14.0055C19.4017 15.0309 20.2318 15.8512 21.2572 15.8512Z" fill="#C7C7CC"/>
<path d="M14.0013 15.8512C15.0267 15.8512 15.847 15.0309 15.847 14.0055C15.847 12.9801 15.0267 12.15 14.0013 12.15C12.976 12.15 12.1459 12.9801 12.1459 14.0055C12.1459 15.0309 12.976 15.8512 14.0013 15.8512Z" fill="#C7C7CC"/>
<path d="M6.74548 15.8512C7.77087 15.8512 8.59118 15.0309 8.59118 14.0055C8.59118 12.9801 7.77087 12.15 6.74548 12.15C5.72009 12.15 4.89001 12.9801 4.89001 14.0055C4.89001 15.0309 5.72009 15.8512 6.74548 15.8512Z" fill="#C7C7CC"/>
</svg>
