<svg width="28" height="28" viewBox="0 0 28 28" fill="none" xmlns="http://www.w3.org/2000/svg">
<path fill-rule="evenodd" clip-rule="evenodd" d="M27.4746 14.3008C27.4746 16.2734 22.0645 22.6015 14.2422 22.6015C6.51758 22.6015 1 16.2734 1 14.3008C1 12.3184 6.51758 6 14.2422 6C22.0547 6 27.4746 12.3184 27.4746 14.3008ZM8.77344 14.3008C8.77344 17.2695 11.1953 19.7402 14.2422 19.7402C17.2598 19.7402 19.7012 17.2695 19.7012 14.3008C19.7012 11.2539 17.2598 8.86132 14.2422 8.86132C11.1953 8.86132 8.77344 11.2539 8.77344 14.3008ZM14.3 18.6C16.6748 18.6 18.6 16.6748 18.6 14.3C18.6 11.9252 16.6748 10 14.3 10C11.9252 10 10 11.9252 10 14.3C10 16.6748 11.9252 18.6 14.3 18.6Z" fill="#C7C7CC"/>
</svg>
