<svg width="28" height="28" viewBox="0 0 28 28" fill="none" xmlns="http://www.w3.org/2000/svg">
<path fill-rule="evenodd" clip-rule="evenodd" d="M23.9219 13.9609C23.9219 19.4004 19.4102 23.9219 13.9609 23.9219C8.52148 23.9219 4 19.4004 4 13.9609C4 8.51172 8.51172 4 13.9512 4C19.4004 4 23.9219 8.51172 23.9219 13.9609ZM10.4355 16.9199C10.4355 17.584 11.8516 18.9902 13.9609 18.9902C16.0605 18.9902 17.4766 17.584 17.4766 16.9199C17.4766 16.6758 17.2422 16.5684 17.0273 16.666C16.2949 17.0664 15.4258 17.5254 13.9609 17.5254C12.5164 17.5254 11.6623 17.0756 10.9304 16.6901L10.8848 16.666C10.6797 16.5684 10.4355 16.6758 10.4355 16.9199ZM9.79102 11.666C9.79102 12.4668 10.3379 13.043 10.9727 13.043C11.6172 13.043 12.1836 12.4668 12.1836 11.666C12.1836 10.8457 11.6172 10.2695 10.9727 10.2695C10.3379 10.2695 9.79102 10.8457 9.79102 11.666ZM15.7578 11.666C15.7578 12.4668 16.3047 13.043 16.9395 13.043C17.584 13.043 18.1504 12.4668 18.1504 11.666C18.1504 10.8457 17.584 10.2695 16.9395 10.2695C16.3047 10.2695 15.7578 10.8457 15.7578 11.666Z" fill="#C7C7CC"/>
</svg>
