<svg width="28" height="28" viewBox="0 0 28 28" fill="none" xmlns="http://www.w3.org/2000/svg">
<path d="M14.0009 23.9619C19.4502 23.9619 23.9619 19.4404 23.9619 14.0009C23.9619 8.55173 19.4404 4.04001 13.9912 4.04001C8.55171 4.04001 4.03999 8.55173 4.03999 14.0009C4.03999 19.4404 8.56147 23.9619 14.0009 23.9619ZM14.0009 22.3017C9.39155 22.3017 5.70991 18.6103 5.70991 14.0009C5.70991 9.39157 9.38179 5.70017 13.9912 5.70017C18.6005 5.70017 22.3017 9.39157 22.3017 14.0009C22.3017 18.6103 18.6103 22.3017 14.0009 22.3017Z" fill="#C7C7CC"/>
<path d="M12.4189 15.5048C13.0537 16.1396 13.9716 16.1396 14.6162 15.5048C14.7334 15.3877 14.9189 15.124 15.0361 14.9677L18.3173 10.2314C18.4834 9.99704 18.4345 9.77243 18.2978 9.62595C18.1513 9.48923 17.917 9.4404 17.6826 9.59665L12.9462 12.8877C12.79 12.9951 12.5361 13.1806 12.4189 13.2978C11.7744 13.9424 11.7744 14.8603 12.4189 15.5048ZM10.0263 18.7666C10.4853 18.7666 10.8662 18.3857 10.8662 17.9267C10.8662 17.4677 10.4853 17.0869 10.0263 17.0869C9.56734 17.0869 9.18648 17.4677 9.18648 17.9267C9.18648 18.3857 9.56734 18.7666 10.0263 18.7666ZM8.37594 14.8408C8.83492 14.8408 9.21578 14.4599 9.21578 14.001C9.21578 13.542 8.83492 13.1611 8.37594 13.1611C7.91695 13.1611 7.53609 13.542 7.53609 14.001C7.53609 14.4599 7.91695 14.8408 8.37594 14.8408ZM10.0263 10.915C10.4853 10.915 10.8662 10.5342 10.8662 10.0752C10.8662 9.60642 10.4853 9.23532 10.0263 9.23532C9.56734 9.23532 9.18648 9.60642 9.18648 10.0752C9.18648 10.5342 9.56734 10.915 10.0263 10.915ZM13.9912 9.23532C14.4502 9.23532 14.831 8.85446 14.831 8.39548C14.831 7.93649 14.4502 7.55563 13.9912 7.55563C13.5322 7.55563 13.1513 7.93649 13.1513 8.39548C13.1513 8.85446 13.5322 9.23532 13.9912 9.23532ZM19.5869 14.8408C20.0459 14.8408 20.4267 14.4599 20.4267 14.001C20.4267 13.542 20.0459 13.1611 19.5869 13.1611C19.1279 13.1611 18.747 13.542 18.747 14.001C18.747 14.4599 19.1279 14.8408 19.5869 14.8408ZM17.9365 18.7666C18.3955 18.7666 18.7763 18.3857 18.7763 17.9267C18.7763 17.4677 18.3955 17.0869 17.9365 17.0869C17.4775 17.0869 17.0966 17.4677 17.0966 17.9267C17.0966 18.3857 17.4775 18.7666 17.9365 18.7666Z" fill="#C7C7CC"/>
</svg>
