<svg width="28" height="28" viewBox="0 0 28 28" fill="none" xmlns="http://www.w3.org/2000/svg">
<path d="M14 23.6474C14.254 23.6474 14.4982 23.6276 14.762 23.6078L15.3189 24.6879C15.436 24.9158 15.6412 25.0249 15.9148 24.9952C16.159 24.9456 16.325 24.7573 16.3641 24.4997L16.5302 23.3005C17.0187 23.1618 17.4973 22.9735 17.9565 22.7754L18.8357 23.5781C19.0213 23.7565 19.2558 23.7862 19.5 23.6573C19.7149 23.5285 19.8029 23.3005 19.7539 23.033L19.5098 21.8537C19.9201 21.5663 20.3206 21.2393 20.6821 20.8726L21.7665 21.3285C22.0106 21.4375 22.2451 21.378 22.4307 21.16C22.5967 20.9717 22.6066 20.724 22.4698 20.496L21.8348 19.4653C22.1279 19.0591 22.3624 18.6032 22.587 18.1275L23.7886 18.187C24.0427 18.2068 24.2477 18.0581 24.3357 17.8204C24.4138 17.5725 24.3455 17.3347 24.1403 17.1762L23.2025 16.423C23.3295 15.9374 23.4271 15.432 23.4761 14.8969L24.5995 14.5302C24.8534 14.4509 25 14.2626 25 13.995C25 13.7275 24.8534 13.5392 24.5995 13.45L23.4761 13.0932C23.4271 12.5581 23.3295 12.0626 23.2025 11.5671L24.1403 10.8139C24.3357 10.6554 24.4138 10.4274 24.3357 10.1797C24.2477 9.94183 24.0427 9.79319 23.7886 9.813L22.587 9.85264C22.3624 9.37696 22.1279 8.94092 21.8348 8.51479L22.4698 7.48415C22.6066 7.27604 22.587 7.02829 22.4307 6.83999C22.2451 6.62198 22.0106 6.57243 21.7665 6.67153L20.6821 7.11748C20.3206 6.76072 19.9201 6.42378 19.5098 6.13638L19.7539 4.967C19.8126 4.68952 19.7149 4.46159 19.5 4.34266C19.2558 4.20393 19.0213 4.23366 18.8357 4.42195L17.9565 5.21475C17.4973 5.00664 17.0187 4.83817 16.5302 4.68952L16.3641 3.50032C16.325 3.24266 16.1492 3.05437 15.905 3.00482C15.6412 2.97509 15.4263 3.0841 15.3189 3.30212L14.762 4.38231C14.4982 4.36249 14.254 4.35258 14 4.35258C13.7362 4.35258 13.5017 4.36249 13.238 4.38231L12.6714 3.30212C12.5639 3.0841 12.349 2.97509 12.0853 3.00482C11.841 3.05437 11.6652 3.24266 11.6359 3.50032L11.46 4.68952C10.9716 4.83817 10.5027 4.99674 10.0337 5.21475L9.15452 4.42195C8.96892 4.23366 8.73445 4.21384 8.49023 4.34266C8.27531 4.46159 8.17762 4.68952 8.23624 4.967L8.48046 6.13638C8.07992 6.42378 7.66963 6.76072 7.30817 7.11748L6.2238 6.67153C5.97958 6.57243 5.75489 6.62198 5.56927 6.83999C5.40319 7.02829 5.38366 7.27604 5.52042 7.48415L6.15542 8.51479C5.87211 8.94092 5.62788 9.37696 5.40319 9.85264L4.21137 9.813C3.95737 9.79319 3.74245 9.94183 3.65453 10.1797C3.57638 10.4274 3.65453 10.6554 3.84991 10.8139L4.78774 11.5671C4.66075 12.0626 4.56305 12.5581 4.53374 13.0833L3.39076 13.45C3.13677 13.5392 3 13.7275 3 13.995C3 14.2626 3.13677 14.4509 3.39076 14.5302L4.53374 14.8969C4.56305 15.432 4.66075 15.9374 4.78774 16.423L3.84991 17.1762C3.65453 17.3248 3.58615 17.5626 3.65453 17.8204C3.74245 18.0581 3.95737 18.2068 4.21137 18.187L5.40319 18.1275C5.62788 18.6032 5.87211 19.0591 6.15542 19.4653L5.52042 20.496C5.38366 20.724 5.40319 20.9717 5.56927 21.16C5.75489 21.378 5.97958 21.4375 6.2238 21.3285L7.30817 20.8726C7.66963 21.2393 8.07992 21.5663 8.48046 21.8537L8.23624 23.033C8.18739 23.3005 8.27531 23.5285 8.49023 23.6573C8.73445 23.7862 8.96892 23.7565 9.15452 23.5781L10.0337 22.7754C10.5027 22.9735 10.9716 23.1618 11.46 23.3005L11.6359 24.4997C11.6652 24.7573 11.841 24.9456 12.0853 24.9952C12.349 25.0249 12.5542 24.9158 12.6714 24.6879L13.238 23.6078C13.492 23.6276 13.7362 23.6474 14 23.6474ZM14 22.151C9.52575 22.151 6.0675 18.5239 6.0675 14.005C6.0675 9.47606 9.52575 5.84899 14 5.84899C18.4743 5.84899 21.9325 9.47606 21.9325 14.005C21.9325 18.5239 18.4743 22.151 14 22.151ZM12.2904 12.3698L13.3748 11.6761L10.0631 5.92827L8.93961 6.57243L12.2904 12.3698ZM16.2664 14.6293H22.8605L22.8508 13.3509H16.2664V14.6293ZM13.3846 16.3437L12.3099 15.6302L8.84191 21.3879L9.95559 22.0519L13.3846 16.3437ZM13.9805 16.6112C15.3872 16.6112 16.5302 15.4518 16.5302 14.0149C16.5302 12.5779 15.3872 11.4184 13.9805 11.4184C12.5639 11.4184 11.421 12.5779 11.421 14.0149C11.421 15.4518 12.5639 16.6112 13.9805 16.6112ZM13.9805 15.214C13.3064 15.214 12.7984 14.6887 12.7984 14.0149C12.7984 13.341 13.3064 12.8157 13.9805 12.8157C14.6447 12.8157 15.1527 13.341 15.1527 14.0149C15.1527 14.6887 14.6447 15.214 13.9805 15.214Z" fill="#C7C7CC"/>
</svg>
