<svg width="28" height="28" viewBox="0 0 28 28" fill="none" xmlns="http://www.w3.org/2000/svg">
<path d="M14.3516 21.3438C15.6016 21.3438 19.0195 16.8516 19.0195 15.1719C19.0195 14.2246 16.9102 12.3789 15.8066 12.3789C15.3281 12.3789 14.5566 13.0625 14 13.0625C13.4434 13.0625 12.1934 11.9688 12.1934 11.4902C12.1934 11.2168 12.4277 11.0606 12.7012 11.0606C13.1797 11.0606 13.9316 11.8613 14.6934 11.8613C15.3281 11.8613 15.6699 11.4219 15.6699 10.7871C15.6699 10.4551 15.4844 10.123 15.2109 9.69336C16.2168 9.20508 18.2285 8.15039 18.8828 6.80273C18.1504 5.66992 16.207 4.92773 13.9414 4.92773C10.5918 4.92773 7.29102 6.90039 6.99805 8.81445C6.89062 9.83984 7.67188 10.9629 9.03906 12.1543L10.4648 13.3945C10.9141 13.7949 11.1777 13.9805 11.1777 14.2344C11.1777 14.6543 10.709 14.9473 10.709 15.4844C10.709 15.9727 10.9434 16.3926 11.4512 16.7637C13.0332 17.9551 13.4141 18.1211 13.4141 18.4824C13.4238 19.127 13.043 19.6152 13.043 20.2109C13.043 20.748 13.7363 21.3438 14.3516 21.3438ZM13.9609 23.9219C19.4102 23.9219 23.9219 19.4004 23.9219 13.9609C23.9219 8.51172 19.4004 4 13.9512 4C8.51172 4 4 8.51172 4 13.9609C4 19.4004 8.52148 23.9219 13.9609 23.9219ZM13.9609 22.5938C9.24414 22.5938 5.32812 18.6777 5.32812 13.9609C5.32812 9.24414 9.23438 5.32812 13.9512 5.32812C18.668 5.32812 22.5938 9.24414 22.5938 13.9609C22.5938 18.6777 18.6777 22.5938 13.9609 22.5938Z" fill="#C7C7CC"/>
</svg>
