<svg width="28" height="28" viewBox="0 0 28 28" fill="none" xmlns="http://www.w3.org/2000/svg">
<path d="M21.6111 20.9278C24.0428 18.4961 24.4334 15.4785 22.7635 11.9629L20.5662 7.33402C20.4099 7.01175 20.2244 6.74808 20.0193 6.543C19.2869 5.81058 18.2224 5.84964 17.5193 6.55277C17.0408 7.03128 16.8943 7.74416 17.2068 8.51566L17.8611 10.0782C17.8806 10.1172 17.8806 10.1563 17.8514 10.1856C17.8123 10.2149 17.7732 10.2051 17.7342 10.1758L12.1971 4.6387C11.3963 3.82815 10.3807 3.82815 9.60917 4.59964C9.32596 4.87308 9.16971 5.23441 9.15995 5.6055C8.35917 4.99026 7.47049 5.0098 6.7869 5.69339C6.11307 6.36722 6.09354 7.28519 6.66971 8.06644C6.31815 8.06644 5.98612 8.22269 5.73221 8.4766C5.01932 9.18949 5.03885 10.166 5.80057 10.9278L6.57206 11.6992C6.1912 11.6895 5.81034 11.8653 5.51737 12.1582C4.79471 12.8809 4.83377 13.9063 5.60526 14.6778L11.5428 20.6153C14.7752 23.8477 18.6912 23.8477 21.6111 20.9278ZM20.6248 20.0098C18.1834 22.4512 15.117 22.3731 12.3435 19.5899L6.62088 13.8672C6.31815 13.5742 6.30838 13.1739 6.59159 12.8907C6.87479 12.6075 7.28495 12.6075 7.57792 12.9004L11.1131 16.4258C11.367 16.6797 11.7381 16.6504 11.9627 16.4258C12.2068 16.1914 12.2361 15.8106 11.9822 15.5567L6.70877 10.2735C6.41581 9.98049 6.39627 9.58988 6.67948 9.30667C6.96268 9.01371 7.3826 9.01371 7.67557 9.30667L12.5974 14.2383C12.8513 14.4922 13.2322 14.4531 13.4568 14.2285C13.6912 13.9942 13.7303 13.6133 13.4763 13.3594L7.6951 7.57816C7.40213 7.28519 7.3826 6.87503 7.67557 6.59183C7.94901 6.30863 8.36893 6.31839 8.6619 6.61136L14.4431 12.3926C14.6775 12.6367 15.0584 12.627 15.2928 12.3926C15.5369 12.1485 15.5564 11.7578 15.3221 11.5235L10.3904 6.59183C10.0974 6.29886 10.0877 5.89847 10.3709 5.6055C10.6639 5.3223 11.0642 5.33207 11.3572 5.62503L18.1541 12.4219C18.4959 12.7735 18.906 12.7637 19.1892 12.4805C19.4334 12.2364 19.5408 11.9141 19.3455 11.4063L18.1248 8.20316C17.9588 7.76371 18.115 7.41214 18.4471 7.25589C18.8181 7.08988 19.1502 7.26566 19.365 7.72464L21.6306 12.5098C23.1443 15.7129 22.5486 18.0762 20.6248 20.0098Z" fill="#C7C7CC"/>
</svg>
