<svg width="28" height="28" viewBox="0 0 28 28" fill="none" xmlns="http://www.w3.org/2000/svg">
<path d="M11.7847 21.2964C14.8315 24.3335 18.6304 24.1382 21.3647 21.4136C23.562 19.2065 24.0015 16.9214 23.0737 14.1675C22.5757 12.6245 21.7554 10.9937 20.7593 9.12842C20.3687 8.3667 19.8804 7.37061 19.5483 7.04834C19.1772 6.67725 18.6694 6.69678 18.269 7.0874C17.8296 7.52686 17.8491 8.0542 18.1812 9.04053L19.2456 12.0093C19.3628 12.3218 19.3433 12.5171 19.2261 12.6343C19.0894 12.771 18.9038 12.7905 18.6597 12.5464L11.4233 5.30029C11.0132 4.8999 10.3394 4.8999 9.93896 5.30029C9.52881 5.71045 9.52881 6.37451 9.93896 6.78467L15.1147 11.9605C14.8608 12.0776 14.5972 12.2339 14.3335 12.4097L8.32764 6.40381C7.92725 5.99365 7.25342 5.99365 6.84326 6.40381C6.44287 6.81396 6.44287 7.47803 6.84326 7.88818L12.771 13.8159C12.5757 14.0503 12.3901 14.3042 12.2144 14.5581L6.78467 9.11865C6.37451 8.7085 5.71045 8.7085 5.30029 9.11865C4.8999 9.52881 4.8999 10.1929 5.30029 10.603L11.2085 16.5015C11.0815 16.8335 11.0034 17.1655 10.9351 17.478L6.8335 13.3765C6.43311 12.9663 5.75928 12.9663 5.34912 13.3765C4.94873 13.7866 4.94873 14.4507 5.34912 14.8608L11.7847 21.2964Z" fill="#C7C7CC"/>
</svg>
