<svg width="28" height="28" viewBox="0 0 28 28" fill="none" xmlns="http://www.w3.org/2000/svg">
<path d="M4 17.7402C4 20.6309 5.80664 23.0527 8.22852 23.0527H9.94727C8.18945 21.7734 7.4668 19.8398 7.4668 17.6426C7.47656 15.2012 8.42383 13.4531 9.26367 12.3984H7.86719C5.68945 12.3984 4 14.7422 4 17.7402ZM8.81445 17.6621C8.81445 21.2266 11.5977 23.9805 16.1387 23.9805H17.4668C18.7266 23.9805 19.6641 23.8926 20.1914 23.7461C20.9531 23.5605 21.6855 23.0918 21.6855 22.1738C21.6855 21.793 21.5879 21.5195 21.4707 21.3145C21.3926 21.1875 21.4121 21.0898 21.5293 21.041C22.1348 20.7871 22.6328 20.2207 22.6328 19.4492C22.6328 19.0098 22.5059 18.6191 22.291 18.3555C22.1836 18.209 22.1934 18.0723 22.3789 17.9746C22.8086 17.7207 23.1211 17.1738 23.1211 16.5391C23.1211 16.0801 22.9746 15.6016 22.7207 15.3672C22.5645 15.2305 22.5938 15.1328 22.75 14.9863C23.0527 14.7324 23.248 14.293 23.248 13.7363C23.248 12.7988 22.5156 12.0273 21.5488 12.0273H18.1113C17.2422 12.0273 16.666 11.5781 16.666 10.8555C16.666 9.55664 18.2969 7.1543 18.2969 5.43555C18.2969 4.52734 17.7109 4 16.9492 4C16.2461 4 15.9043 4.47852 15.5332 5.21094C14.0781 8.0332 12.1445 10.3184 10.6699 12.2715C9.41992 13.9316 8.81445 15.3672 8.81445 17.6621Z" fill="#C7C7CC"/>
</svg>
