<svg width="28" height="28" viewBox="0 0 28 28" fill="none" xmlns="http://www.w3.org/2000/svg">
<path d="M16.5149 22.683H11.4759V16.2279C11.4759 15.7787 11.7786 15.4857 12.2278 15.4857H15.7727C16.222 15.4857 16.5149 15.7787 16.5149 16.2279V22.683ZM5.39188 22.0971C5.39188 23.4545 6.21219 24.2553 7.58914 24.2553H20.4309C21.8079 24.2553 22.6184 23.4545 22.6184 22.0971V14.3627L14.5911 7.63416C14.22 7.32166 13.7805 7.33143 13.4192 7.63416L5.39188 14.3627V22.0971ZM2.345 13.3861C2.345 13.7865 2.6575 14.1674 3.18485 14.1674C3.45828 14.1674 3.68289 14.0209 3.88797 13.8549L13.6634 5.65174C13.8782 5.45643 14.1419 5.45643 14.3567 5.65174L24.1321 13.8549C24.3274 14.0209 24.552 14.1674 24.8255 14.1674C25.2845 14.1674 25.6555 13.8842 25.6555 13.4154C25.6555 13.1224 25.5579 12.9271 25.3528 12.7514L15.1868 4.20643C14.4641 3.59119 13.5657 3.59119 12.8333 4.20643L2.6575 12.7514C2.44266 12.9271 2.345 13.1615 2.345 13.3861Z" fill="#C7C7CC"/>
</svg>
