<svg width="28" height="28" viewBox="0 0 28 28" fill="none" xmlns="http://www.w3.org/2000/svg">
<path d="M11.1829 23.2494H16.8177V16.14C16.8177 15.6908 16.5247 15.3978 16.0755 15.3978H11.9348C11.4759 15.3978 11.1829 15.6908 11.1829 16.14V23.2494ZM7.36453 24.2553H20.5774C21.9641 24.2553 22.7747 23.4642 22.7747 22.0971V11.306L21.2024 10.2318V21.6967C21.2024 22.3314 20.8606 22.683 20.2454 22.683H7.69656C7.07156 22.683 6.72977 22.3314 6.72977 21.6967V10.2416L5.1575 11.306V22.0971C5.1575 23.4642 5.96805 24.2553 7.36453 24.2553ZM2.345 13.3861C2.345 13.7865 2.6575 14.1674 3.18485 14.1674C3.45828 14.1674 3.68289 14.0209 3.88797 13.8549L13.6634 5.65174C13.8782 5.45643 14.1419 5.45643 14.3567 5.65174L24.1321 13.8549C24.3274 14.0209 24.552 14.1674 24.8255 14.1674C25.2845 14.1674 25.6555 13.8842 25.6555 13.4154C25.6555 13.1224 25.5579 12.9271 25.3528 12.7513L15.1868 4.20642C14.4641 3.59119 13.5657 3.59119 12.8333 4.20642L2.6575 12.7513C2.44266 12.9271 2.345 13.1615 2.345 13.3861Z" fill="#C7C7CC"/>
</svg>
