<svg width="28" height="28" viewBox="0 0 28 28" fill="none" xmlns="http://www.w3.org/2000/svg">
<path d="M13.9609 23.9219C19.4102 23.9219 23.9219 19.4004 23.9219 13.9609C23.9219 8.51172 19.4004 4 13.9512 4C8.51172 4 4 8.51172 4 13.9609C4 19.4004 8.52148 23.9219 13.9609 23.9219ZM13.9609 22.2617C9.35156 22.2617 5.66992 18.5703 5.66992 13.9609C5.66992 9.35156 9.3418 5.66016 13.9512 5.66016C18.5605 5.66016 22.2617 9.35156 22.2617 13.9609C22.2617 18.5703 18.5703 22.2617 13.9609 22.2617Z" fill="#C7C7CC"/>
<path d="M12.252 19.4297H16.2266C16.627 19.4297 16.9395 19.1367 16.9395 18.7363C16.9395 18.3555 16.627 18.0527 16.2266 18.0527H15.0156V13.082C15.0156 12.5547 14.752 12.2031 14.2539 12.2031H12.418C12.0176 12.2031 11.7051 12.5059 11.7051 12.8867C11.7051 13.2871 12.0176 13.5801 12.418 13.5801H13.4629V18.0527H12.252C11.8516 18.0527 11.5391 18.3555 11.5391 18.7363C11.5391 19.1367 11.8516 19.4297 12.252 19.4297ZM13.8731 10.582C14.5859 10.582 15.1426 10.0156 15.1426 9.30273C15.1426 8.58984 14.5859 8.02344 13.8731 8.02344C13.1699 8.02344 12.6035 8.58984 12.6035 9.30273C12.6035 10.0156 13.1699 10.582 13.8731 10.582Z" fill="#C7C7CC"/>
</svg>
