<svg width="28" height="28" viewBox="0 0 28 28" fill="none" xmlns="http://www.w3.org/2000/svg">
<path d="M9.78125 20.9648H15.9531C16.4121 20.9648 16.7441 20.6816 16.7441 20.2227C16.7441 19.7832 16.4219 19.5 15.9629 19.5H13.7754L16.1484 8.46484H18.3359C18.7949 8.46484 19.1172 8.18164 19.1172 7.72266C19.1172 7.2832 18.8047 7 18.3457 7H12.1445C11.6855 7 11.373 7.2832 11.373 7.72266C11.373 8.18164 11.6953 8.46484 12.1543 8.46484H14.3418L11.9688 19.5H9.77148C9.3125 19.5 9 19.7832 9 20.2227C9 20.6816 9.32227 20.9648 9.78125 20.9648Z" fill="#C7C7CC"/>
</svg>
