<svg width="28" height="28" viewBox="0 0 28 28" fill="none" xmlns="http://www.w3.org/2000/svg">
<path d="M8.55557 12.7665C7.96939 11.4572 7.47 10.3417 7.47 8.65564C7.47 5.2865 10.3509 2.64001 14.0032 2.64001C17.6555 2.64001 20.5364 5.2865 20.5364 8.65564C20.5364 10.342 20.0387 11.4576 19.4546 12.7671C18.7398 14.3696 17.8954 16.2625 17.6751 19.847C17.6458 20.1986 17.4407 20.4232 17.0598 20.4232H10.9466C10.5755 20.4232 10.3606 20.1986 10.3411 19.847C10.1208 16.262 9.27322 14.3691 8.55557 12.7665Z" fill="#C7C7CC"/>
<path d="M17.0989 22.5326H10.9173C10.595 22.5326 10.3411 22.2787 10.3411 21.9564C10.3411 21.6439 10.595 21.39 10.9173 21.39H17.0989C17.4212 21.39 17.6653 21.6439 17.6653 21.9564C17.6653 22.2787 17.4212 22.5326 17.0989 22.5326Z" fill="#C7C7CC"/>
<path d="M16.8743 23.4994C16.7766 24.6224 15.5169 25.3646 14.0032 25.3646C12.4798 25.3646 11.2102 24.6224 11.1419 23.4994H16.8743Z" fill="#C7C7CC"/>
</svg>
