<svg width="28" height="28" viewBox="0 0 28 28" fill="none" xmlns="http://www.w3.org/2000/svg">
<path d="M5.15009 12.9873C5.60907 12.9873 6.00946 12.6065 6.00946 12.1475C6.00946 11.6788 5.60907 11.2979 5.15009 11.2979H3.27509C2.82587 11.2979 2.44501 11.6885 2.44501 12.1475C2.44501 12.5967 2.82587 12.9873 3.27509 12.9873H5.15009ZM7.15204 6.49319C7.47431 6.81546 8.01142 6.82522 8.33368 6.49319C8.66571 6.16116 8.65595 5.63382 8.33368 5.31155L7.01532 3.97366C6.70282 3.6514 6.15595 3.6514 5.82392 3.97366C5.50165 4.31546 5.50165 4.83304 5.82392 5.1553L7.15204 6.49319ZM13.1579 3.3096C13.1579 3.75882 13.5388 4.14944 13.9977 4.14944C14.4665 4.14944 14.8473 3.75882 14.8473 3.3096V1.4346C14.8473 0.975616 14.4567 0.584991 13.9977 0.584991C13.5388 0.584991 13.1579 0.975616 13.1579 1.4346V3.3096ZM19.652 5.31155C19.3298 5.63382 19.32 6.16116 19.652 6.49319C19.9938 6.82522 20.5114 6.81546 20.8337 6.49319L22.1716 5.1553C22.4938 4.83304 22.4938 4.31546 22.1716 3.97366C21.8298 3.6514 21.3122 3.6514 20.9899 3.97366L19.652 5.31155ZM24.7009 12.9873C25.1598 12.9873 25.5505 12.5967 25.5505 12.1475C25.5505 11.6885 25.1598 11.2979 24.7009 11.2979H22.8259C22.3766 11.2979 21.986 11.6788 21.986 12.1475C21.986 12.6065 22.3766 12.9873 22.8259 12.9873H24.7009Z" fill="#C7C7CC"/>
<path d="M13.9977 5.96585C10.5407 5.96585 7.83563 8.47561 7.83563 11.669C7.83563 15.2041 9.94501 16.083 10.531 22.1866C10.57 22.5284 10.7556 22.7432 11.1169 22.7432H16.8786C17.2399 22.7432 17.4255 22.5284 17.4548 22.1866C18.0505 16.083 20.1696 15.2041 20.1696 11.669C20.1696 8.47561 17.445 5.96585 13.9977 5.96585ZM11.0876 24.7354H16.9079C17.2302 24.7354 17.4743 24.501 17.4743 24.1788C17.4743 23.8565 17.2302 23.6221 16.9079 23.6221H11.0876C10.7751 23.6221 10.531 23.8565 10.531 24.1788C10.531 24.501 10.7751 24.7354 11.0876 24.7354ZM13.9977 27.4112C15.4333 27.4112 16.654 26.6885 16.7223 25.6143H11.2731C11.3317 26.6885 12.5524 27.4112 13.9977 27.4112Z" fill="#C7C7CC"/>
</svg>
