<svg width="28" height="28" viewBox="0 0 28 28" fill="none" xmlns="http://www.w3.org/2000/svg">
<path d="M8.84375 19.6309H18.9609C19.4004 19.6309 19.752 19.2891 19.752 18.8496C19.752 18.4102 19.4004 18.0586 18.9609 18.0586H8.84375C8.4043 18.0586 8.0625 18.4102 8.0625 18.8496C8.0625 19.2891 8.4043 19.6309 8.84375 19.6309Z" fill="#C7C7CC"/>
<path d="M6.8418 14.6016H20.9727C21.4121 14.6016 21.7539 14.2598 21.7539 13.8203C21.7539 13.3809 21.4121 13.0293 20.9727 13.0293H6.8418C6.40234 13.0293 6.05078 13.3809 6.05078 13.8203C6.05078 14.2598 6.40234 14.6016 6.8418 14.6016Z" fill="#C7C7CC"/>
<path d="M4.78125 9.57227H22.9746C23.4141 9.57227 23.7559 9.23047 23.7559 8.79102C23.7559 8.35156 23.4141 8 22.9746 8H4.78125C4.3418 8 4 8.35156 4 8.79102C4 9.23047 4.3418 9.57227 4.78125 9.57227Z" fill="#C7C7CC"/>
</svg>
