<svg width="28" height="28" viewBox="0 0 28 28" fill="none" xmlns="http://www.w3.org/2000/svg">
<path d="M4.73242 19H23.0137C23.4238 19 23.7559 18.668 23.7559 18.248C23.7559 17.8379 23.4238 17.5156 23.0137 17.5156H4.73242C4.32227 17.5156 4 17.8379 4 18.248C4 18.668 4.32227 19 4.73242 19Z" fill="#C7C7CC"/>
<path d="M4.73242 14.7324H23.0137C23.4238 14.7324 23.7559 14.4102 23.7559 14C23.7559 13.5801 23.4238 13.248 23.0137 13.248H4.73242C4.32227 13.248 4 13.5801 4 14C4 14.4102 4.32227 14.7324 4.73242 14.7324Z" fill="#C7C7CC"/>
<path d="M4.73242 10.4746H23.0137C23.4238 10.4746 23.7559 10.1523 23.7559 9.74219C23.7559 9.33203 23.4238 9 23.0137 9H4.73242C4.32227 9 4 9.33203 4 9.74219C4 10.1523 4.32227 10.4746 4.73242 10.4746Z" fill="#C7C7CC"/>
</svg>
