<svg width="28" height="28" viewBox="0 0 28 28" fill="none" xmlns="http://www.w3.org/2000/svg">
<path d="M14.1223 9.97375L12.8235 11.2921C14.1125 11.3995 14.9524 11.7804 15.5871 12.4152C17.2961 14.1242 17.2864 16.546 15.5969 18.2355L12.4035 21.4191C10.7043 23.1183 8.30197 23.1281 6.59299 21.4288C4.88401 19.7101 4.89377 17.3077 6.59299 15.6085L8.50705 13.6945C8.23361 13.0792 8.16526 12.3468 8.27268 11.712L5.40158 14.5734C3.0676 16.9171 3.04807 20.2374 5.41135 22.6007C7.7844 24.9738 11.1047 24.9542 13.4387 22.6202L16.7785 19.2706C19.1223 16.9269 19.1418 13.6066 16.7688 11.2433C16.1535 10.6281 15.3723 10.1886 14.1223 9.97375ZM13.8782 18.0206L15.177 16.7023C13.8879 16.6046 13.0481 16.214 12.4133 15.5792C10.7043 13.8702 10.7141 11.4484 12.4035 9.75891L15.5871 6.57531C17.2961 4.8761 19.6985 4.86634 21.4075 6.57531C23.1164 8.28431 23.0969 10.6964 21.4075 12.3859L19.4934 14.2999C19.7668 14.9249 19.8254 15.6476 19.7278 16.2824L22.5989 13.421C24.9328 11.0773 24.9524 7.76673 22.5891 5.39368C20.216 3.02063 16.8957 3.04016 14.552 5.38392L11.2219 8.72375C8.87815 11.0675 8.85861 14.3878 11.2317 16.7511C11.8469 17.3663 12.6281 17.8058 13.8782 18.0206Z" fill="#C7C7CC"/>
</svg>
