<svg width="28" height="28" viewBox="0 0 28 28" fill="none" xmlns="http://www.w3.org/2000/svg">
<path d="M9.54688 20.8184H22.8867C23.3262 20.8184 23.6777 20.4766 23.6777 20.0371C23.6777 19.5879 23.3262 19.2461 22.8867 19.2461H9.54688C9.09766 19.2461 8.75586 19.5879 8.75586 20.0371C8.75586 20.4766 9.09766 20.8184 9.54688 20.8184Z" fill="#C7C7CC"/>
<path d="M5.23047 21.2676C5.91406 21.2676 6.46094 20.711 6.46094 20.0371C6.46094 19.3535 5.91406 18.8067 5.23047 18.8067C4.54687 18.8067 4 19.3535 4 20.0371C4 20.711 4.54687 21.2676 5.23047 21.2676Z" fill="#C7C7CC"/>
<path d="M9.54688 14.9199H22.8867C23.3262 14.9199 23.6777 14.5684 23.6777 14.1289C23.6777 13.6894 23.3262 13.3477 22.8867 13.3477H9.54688C9.09766 13.3477 8.75586 13.6894 8.75586 14.1289C8.75586 14.5684 9.09766 14.9199 9.54688 14.9199Z" fill="#C7C7CC"/>
<path d="M5.23047 15.3594C5.91406 15.3594 6.46094 14.8125 6.46094 14.1289C6.46094 13.4453 5.91406 12.8984 5.23047 12.8984C4.54687 12.8984 4 13.4453 4 14.1289C4 14.8125 4.54687 15.3594 5.23047 15.3594Z" fill="#C7C7CC"/>
<path d="M9.54688 9.01172H22.8867C23.3262 9.01172 23.6777 8.66992 23.6777 8.23047C23.6777 7.78125 23.3262 7.43945 22.8867 7.43945H9.54688C9.09766 7.43945 8.75586 7.78125 8.75586 8.23047C8.75586 8.66992 9.09766 9.01172 9.54688 9.01172Z" fill="#C7C7CC"/>
<path d="M5.23047 9.45117C5.91406 9.45117 6.46094 8.9043 6.46094 8.23047C6.46094 7.54687 5.91406 7 5.23047 7C4.54687 7 4 7.54687 4 8.23047C4 8.9043 4.54687 9.45117 5.23047 9.45117Z" fill="#C7C7CC"/>
</svg>
