<svg width="28" height="28" viewBox="0 0 28 28" fill="none" xmlns="http://www.w3.org/2000/svg">
<path d="M10.0059 21.1074H22.8867C23.3262 21.1074 23.6777 20.7656 23.6777 20.3262C23.6777 19.877 23.3262 19.5352 22.8867 19.5352H10.0059C9.56641 19.5352 9.21484 19.877 9.21484 20.3262C9.21484 20.7656 9.56641 21.1074 10.0059 21.1074Z" fill="#C7C7CC"/>
<path d="M5.70898 22.4551C6.87109 22.4551 7.55469 21.9375 7.55469 21.1172C7.55469 20.5801 7.18359 20.209 6.50977 20.1504V20.1211C6.99805 20.0332 7.38867 19.7012 7.38867 19.1348C7.38867 18.3926 6.66602 17.9824 5.69922 17.9824C4.9375 17.9824 4.10742 18.3438 4.10742 18.9883C4.10742 19.2617 4.30273 19.457 4.60547 19.457C4.82031 19.457 4.91797 19.3691 5.05469 19.2227C5.2793 18.9785 5.45508 18.9004 5.69922 18.9004C6.00195 18.9004 6.22656 19.0469 6.22656 19.3398C6.22656 19.6133 5.99219 19.75 5.5918 19.75H5.48438C5.21094 19.75 5.03516 19.8867 5.03516 20.1699C5.03516 20.4336 5.20117 20.5898 5.48438 20.5898H5.61133C6.05078 20.5898 6.28516 20.7363 6.28516 21.0391C6.28516 21.3027 6.04102 21.498 5.70898 21.498C5.36719 21.498 5.12305 21.3027 4.9375 21.1172C4.82031 21.0098 4.72266 20.9316 4.53711 20.9316C4.22461 20.9316 4 21.1172 4 21.4199C4 22.0938 4.91797 22.4551 5.70898 22.4551Z" fill="#C7C7CC"/>
<path d="M10.0059 15.209H22.8867C23.3262 15.209 23.6777 14.8574 23.6777 14.418C23.6777 13.9785 23.3262 13.6367 22.8867 13.6367H10.0059C9.56641 13.6367 9.21484 13.9785 9.21484 14.418C9.21484 14.8574 9.56641 15.209 10.0059 15.209Z" fill="#C7C7CC"/>
<path d="M4.55664 16.3711H7.06641C7.33008 16.3711 7.53516 16.1855 7.53516 15.9121C7.53516 15.6191 7.33984 15.4336 7.06641 15.4336H5.66992V15.4043L6.4707 14.7598C7.13477 14.2129 7.39844 13.9004 7.39844 13.3242C7.39844 12.543 6.74414 12.0156 5.68945 12.0156C4.75195 12.0156 4.07812 12.5039 4.07812 13.1289C4.07812 13.4414 4.2832 13.6074 4.61523 13.6074C4.83984 13.6074 4.98633 13.5391 5.12305 13.3144C5.25977 13.0801 5.43555 12.9531 5.70898 12.9531C5.99219 12.9531 6.19727 13.1387 6.19727 13.4121C6.19727 13.6465 6.08008 13.8516 5.57227 14.252L4.29297 15.3066C4.09766 15.4629 4.01953 15.6387 4.01953 15.8535C4.01953 16.1562 4.23437 16.3711 4.55664 16.3711Z" fill="#C7C7CC"/>
<path d="M10.0059 9.30078H22.8867C23.3262 9.30078 23.6777 8.95898 23.6777 8.51953C23.6777 8.07031 23.3262 7.72852 22.8867 7.72852H10.0059C9.56641 7.72852 9.21484 8.07031 9.21484 8.51953C9.21484 8.95898 9.56641 9.30078 10.0059 9.30078Z" fill="#C7C7CC"/>
<path d="M6.12891 10.4824C6.5 10.4824 6.76367 10.2676 6.76367 9.82812V6.67383C6.76367 6.26367 6.4707 6 6.04102 6C5.69922 6 5.48438 6.11719 5.24023 6.2832L4.54688 6.76172C4.35156 6.89844 4.24414 7.02539 4.24414 7.23047C4.24414 7.48438 4.43945 7.66016 4.66406 7.66016C4.79102 7.66016 4.84961 7.64062 5.01562 7.52344L5.46484 7.2207H5.48438V9.82812C5.48438 10.2676 5.73828 10.4824 6.12891 10.4824Z" fill="#C7C7CC"/>
</svg>
