<svg width="28" height="28" viewBox="0 0 28 28" fill="none" xmlns="http://www.w3.org/2000/svg">
<path d="M4.46001 12.153C4.46001 16.4498 7.9561 19.9459 12.253 19.9459C13.9522 19.9459 15.5049 19.3991 16.7842 18.4811L21.5889 23.2955C21.8135 23.5202 22.1065 23.6276 22.419 23.6276C23.083 23.6276 23.542 23.1295 23.542 22.4752C23.542 22.1627 23.4248 21.8795 23.2198 21.6745L18.4444 16.8698C19.4502 15.5612 20.0459 13.9303 20.0459 12.153C20.0459 7.85609 16.5498 4.36 12.253 4.36C7.9561 4.36 4.46001 7.85609 4.46001 12.153ZM6.12993 12.153C6.12993 8.77406 8.87407 6.02992 12.253 6.02992C15.6319 6.02992 18.376 8.77406 18.376 12.153C18.376 15.5319 15.6319 18.276 12.253 18.276C8.87407 18.276 6.12993 15.5319 6.12993 12.153Z" fill="#C7C7CC"/>
</svg>
