<svg width="28" height="28" viewBox="0 0 28 28" fill="none" xmlns="http://www.w3.org/2000/svg">
<path d="M3 13.5215V22.2422C3 22.9551 3.51758 23.4141 4.20117 23.4141C4.88477 23.4043 5.40234 22.9551 5.40234 22.2422V11.6856H4.92383C3.73242 11.6856 3 12.3594 3 13.5215ZM6.30078 24.9375H21.75C23.8008 24.9375 24.8164 23.9316 24.8164 21.9199V7.02734C24.8164 5.01562 23.8008 4 21.75 4H10.3731C8.33203 4 7.30664 5.01562 7.30664 7.02734V22.8867C7.30664 23.9316 7.0625 24.5176 6.30078 24.9375ZM11.2227 9.82031C10.8711 9.82031 10.6074 9.54688 10.6074 9.20508C10.6074 8.87305 10.8711 8.61914 11.2227 8.61914H20.9199C21.2617 8.61914 21.5254 8.87305 21.5254 9.20508C21.5254 9.54688 21.2617 9.82031 20.9199 9.82031H11.2227ZM11.2227 13.2578C10.8711 13.2578 10.6074 12.9941 10.6074 12.6621C10.6074 12.3203 10.8711 12.0566 11.2227 12.0566H20.9199C21.2617 12.0566 21.5254 12.3203 21.5254 12.6621C21.5254 12.9941 21.2617 13.2578 20.9199 13.2578H11.2227ZM17.2773 16.7051C16.9258 16.7051 16.6719 16.4512 16.6719 16.1191C16.6719 15.7676 16.9258 15.5039 17.2773 15.5039H20.9199C21.2617 15.5039 21.5156 15.7676 21.5156 16.1191C21.5156 16.4512 21.2617 16.7051 20.9199 16.7051H17.2773ZM17.2773 20.2207C16.9258 20.2207 16.6719 19.9668 16.6719 19.6348C16.6719 19.293 16.9258 19.0195 17.2773 19.0195H20.9199C21.2617 19.0195 21.5156 19.293 21.5156 19.6348C21.5156 19.9668 21.2617 20.2207 20.9199 20.2207H17.2773ZM11.75 20.2695C11.0273 20.2695 10.5977 19.8398 10.5977 19.127V16.6562C10.5977 15.9336 11.0273 15.5039 11.75 15.5039H14.1914C14.9043 15.5039 15.334 15.9336 15.334 16.6562V19.127C15.334 19.8398 14.9043 20.2695 14.1914 20.2695H11.75Z" fill="#C7C7CC"/>
</svg>
