<svg width="28" height="28" viewBox="0 0 28 28" fill="none" xmlns="http://www.w3.org/2000/svg">
<path d="M8.82898 23.5135C9.29773 23.5135 9.63953 23.2596 9.73719 22.781L13.2137 5.55444C13.2333 5.49585 13.2528 5.3689 13.2528 5.24194C13.2528 4.76343 12.9012 4.48999 12.4325 4.48999C11.8856 4.48999 11.6317 4.79272 11.5438 5.25171L8.06727 22.4588C8.04773 22.5564 8.0282 22.6736 8.0282 22.7713C8.0282 23.2498 8.36023 23.5135 8.82898 23.5135ZM15.1766 23.5135C15.6552 23.5135 15.9872 23.2596 16.0848 22.781L19.5712 5.55444C19.5809 5.49585 19.6005 5.3689 19.6005 5.24194C19.6005 4.76343 19.2489 4.48999 18.7899 4.48999C18.2333 4.48999 17.9891 4.79272 17.9012 5.25171L14.4149 22.4588C14.3954 22.5564 14.3856 22.6736 14.3856 22.7713C14.3856 23.2498 14.7177 23.5135 15.1766 23.5135ZM7.29578 11.1892H21.8466C22.3837 11.1892 22.7548 10.7986 22.7548 10.2712C22.7548 9.84155 22.4618 9.48999 22.0223 9.48999H7.47156C6.94422 9.48999 6.56336 9.90014 6.56336 10.4373C6.56336 10.8767 6.86609 11.1892 7.29578 11.1892ZM5.97742 18.0447H20.5282C21.0555 18.0447 21.4364 17.6541 21.4364 17.1267C21.4364 16.6971 21.1337 16.3455 20.704 16.3455H6.1532C5.61609 16.3455 5.245 16.7557 5.245 17.2928C5.245 17.7322 5.53797 18.0447 5.97742 18.0447Z" fill="#C7C7CC"/>
</svg>
