<svg width="28" height="28" viewBox="0 0 28 28" fill="none" xmlns="http://www.w3.org/2000/svg">
<path d="M16.2266 24.3965C16.9297 24.3965 17.4277 23.791 17.7891 22.8535L24.1855 6.14453C24.3613 5.69531 24.459 5.29492 24.459 4.96289C24.459 4.32812 24.0684 3.9375 23.4336 3.9375C23.1016 3.9375 22.7012 4.03516 22.252 4.21094L5.45508 10.6465C4.63477 10.959 4 11.457 4 12.1699C4 13.0684 4.68359 13.3711 5.62109 13.6543L10.8945 15.2559C11.5195 15.4512 11.8711 15.4316 12.291 15.041L23.0039 5.03125C23.1309 4.91406 23.2773 4.93359 23.375 5.02148C23.4727 5.11914 23.4824 5.26562 23.3652 5.39258L13.3945 16.1445C13.0137 16.5449 12.9844 16.877 13.1699 17.5312L14.7227 22.6875C15.0156 23.6738 15.3184 24.3965 16.2266 24.3965Z" fill="#C7C7CC"/>
</svg>
