<svg width="28" height="28" viewBox="0 0 28 28" fill="none" xmlns="http://www.w3.org/2000/svg">
<path d="M15.9966 24.229C16.6997 24.229 17.1977 23.6235 17.5591 22.686L23.9555 5.97702C24.1313 5.5278 24.229 5.12741 24.229 4.79538C24.229 4.16062 23.8384 3.76999 23.2036 3.76999C22.8716 3.76999 22.4712 3.86765 22.022 4.04343L5.22507 10.479C4.40476 10.7915 3.76999 11.2895 3.76999 12.0024C3.76999 12.9009 4.45358 13.2036 5.39108 13.4868L12.4419 15.5571L14.4927 22.52C14.7856 23.5063 15.0884 24.229 15.9966 24.229ZM12.8813 14.0727L6.14304 12.0122C5.98679 11.9633 5.93796 11.9243 5.93796 11.8559C5.93796 11.7876 5.97702 11.7387 6.12351 11.6801L19.3266 6.68015C20.1079 6.38718 20.8598 5.99656 21.5825 5.66452C20.938 6.19187 20.1372 6.81687 19.6001 7.35398L12.8813 14.0727ZM16.1528 22.0806C16.0747 22.0806 16.0356 22.0122 15.9868 21.856L13.9262 15.1177L20.645 8.3989C21.1723 7.87156 21.8266 7.05124 22.3442 6.38718C22.0122 7.12937 21.6118 7.88132 21.3188 8.67234L16.3188 21.8755C16.2602 22.022 16.2212 22.0806 16.1528 22.0806Z" fill="#C7C7CC"/>
</svg>
