<svg width="28" height="28" viewBox="0 0 28 28" fill="none" xmlns="http://www.w3.org/2000/svg">
<path fill-rule="evenodd" clip-rule="evenodd" d="M24 14C24 19.4705 19.4706 23.9999 14 23.9999C8.53921 23.9999 4 19.4705 4 14C4 8.53921 8.52941 4 13.9902 4C19.4608 4 24 8.53921 24 14ZM9.36274 18.9118L10.7647 18.3823L17.3921 11.7843L16.1863 10.5784L9.57842 17.1862L9.00979 18.5196C8.90195 18.7745 9.14705 18.9902 9.36274 18.9118ZM16.7941 9.9804L18 11.1765L18.7352 10.4412C19.0686 10.1078 19.0882 9.7255 18.7745 9.42158L18.549 9.18628C18.2451 8.88236 17.8726 8.92158 17.5392 9.2353L16.7941 9.9804Z" fill="#C7C7CC"/>
</svg>
