<svg width="28" height="28" viewBox="0 0 28 28" fill="none" xmlns="http://www.w3.org/2000/svg">
<path d="M9.06476 4.25H18.0642C18.0268 3.45139 17.5252 3 16.6894 3H10.4395C9.6038 3 9.10216 3.45139 9.06476 4.25Z" fill="#C7C7CC"/>
<path d="M7.06732 7.03791C7.38257 6.98949 7.71591 6.96484 8.06639 6.96484H19.0625C19.4131 6.96484 19.7465 6.98965 20.0619 7.03833C19.9552 6.10141 19.3284 5.57812 18.291 5.57812H8.84764C7.81039 5.57812 7.17555 6.10126 7.06732 7.03791Z" fill="#C7C7CC"/>
<path d="M16.6797 18.5762C17.8418 18.5762 18.8379 17.5312 18.8379 16.1836C18.8379 14.8457 17.832 13.8594 16.6797 13.8594C15.5175 13.8594 14.5019 14.875 14.5019 16.2031C14.5019 17.5312 15.5175 18.5762 16.6797 18.5762Z" fill="#C7C7CC"/>
<path d="M12.3242 16.6133C12.3242 17.8047 11.4551 18.7129 10.4395 18.7129C9.42382 18.7129 8.54492 17.8047 8.54492 16.623C8.54492 15.4707 9.42382 14.5918 10.4395 14.5918C11.4453 14.5918 12.3242 15.4512 12.3242 16.6133Z" fill="#C7C7CC"/>
<path fill-rule="evenodd" clip-rule="evenodd" d="M19.0625 25.666H8.0664C6.02539 25.666 5 24.6504 5 22.6387V11.5644C5 9.54297 6.02539 8.53711 8.0664 8.53711H19.0625C21.1035 8.53711 22.1289 9.55273 22.1289 11.5644V22.6387C22.1289 24.6504 21.1035 25.666 19.0625 25.666ZM11.0761 24.0937C11.0114 23.8711 10.9766 23.6259 10.9766 23.3613C10.9766 22.2206 11.5135 21.0753 12.4502 20.1956C11.877 19.9087 11.1957 19.7383 10.4297 19.7383C8.42557 19.7383 6.99235 20.914 6.57226 22.2904V11.6426C6.57226 10.6367 7.11914 10.1094 8.0957 10.1094H19.0429C20 10.1094 20.5566 10.6367 20.5566 11.6426V21.503C19.8206 20.5189 18.445 19.7578 16.6699 19.7578C13.9257 19.7578 12.1094 21.6133 12.1094 23.3613C12.1094 23.6711 12.1886 23.9215 12.3284 24.0937H11.0761Z" fill="#C7C7CC"/>
</svg>
