<svg width="28" height="28" viewBox="0 0 28 28" fill="none" xmlns="http://www.w3.org/2000/svg">
<path d="M7.63748 4.79297H19.9661C19.925 3.99963 19.424 3.54297 18.5918 3.54297H9.01172C8.17944 3.54297 7.6785 3.99963 7.63748 4.79297Z" fill="#C7C7CC"/>
<path d="M5.63956 7.58124C5.9548 7.53259 6.28818 7.50781 6.63867 7.50781H20.9648C21.3154 7.50781 21.6489 7.53259 21.9642 7.5813C21.8576 6.64435 21.2307 6.12109 20.1934 6.12109H7.41992C6.38254 6.12109 5.74765 6.64435 5.63956 7.58124Z" fill="#C7C7CC"/>
<path d="M7.94727 23.3965C8.71875 21.3848 10.9355 19.959 13.6113 19.959C16.2773 19.959 18.4941 21.3848 19.2656 23.3965H7.94727ZM13.6113 18.5332C11.9707 18.5332 10.7012 17.166 10.7012 15.3496C10.7012 13.6309 11.9707 12.2148 13.6113 12.2148C15.2324 12.2148 16.5215 13.6309 16.5215 15.3496C16.5215 17.166 15.2324 18.5332 13.6113 18.5332ZM6.63867 25.1641H20.9648C23.0059 25.1641 24.0312 24.1484 24.0312 22.1367V12.1074C24.0312 10.0957 23.0059 9.08008 20.9648 9.08008H6.63867C4.59766 9.08008 3.57227 10.0957 3.57227 12.1074V22.1367C3.57227 24.1484 4.59766 25.1641 6.63867 25.1641Z" fill="#C7C7CC"/>
</svg>
