<svg width="28" height="28" viewBox="0 0 28 28" fill="none" xmlns="http://www.w3.org/2000/svg">
<path d="M4.81716 10.4997C5.35853 10.4997 5.64454 10.1931 5.64454 9.66172V7.24987C5.64454 6.18702 6.20634 5.64538 7.22778 5.64538H9.69969C10.2411 5.64538 10.5373 5.349 10.5373 4.81758C10.5373 4.28615 10.2411 4 9.69969 4H7.20736C5.07252 4 4 5.05263 4 7.15789V9.66172C4 10.1931 4.29622 10.4997 4.81716 10.4997ZM23.1726 10.4997C23.714 10.4997 24 10.1931 24 9.66172V7.15789C24 5.05263 22.9275 4 20.7927 4H18.2901C17.7589 4 17.4627 4.28615 17.4627 4.81758C17.4627 5.349 17.7589 5.64538 18.2901 5.64538H20.762C21.7732 5.64538 22.3554 6.18702 22.3554 7.24987V9.66172C22.3554 10.1931 22.6516 10.4997 23.1726 10.4997ZM7.20736 24H9.69969C10.2411 24 10.5373 23.7036 10.5373 23.1824C10.5373 22.651 10.2411 22.3546 9.69969 22.3546H7.22778C6.20634 22.3546 5.64454 21.8129 5.64454 20.7501V18.3382C5.64454 17.7966 5.34831 17.5002 4.81716 17.5002C4.28601 17.5002 4 17.7966 4 18.3382V20.8318C4 22.9473 5.07252 24 7.20736 24ZM18.2901 24H20.7927C22.9275 24 24 22.9371 24 20.8318V18.3382C24 17.7966 23.7038 17.5002 23.1726 17.5002C22.6415 17.5002 22.3554 17.7966 22.3554 18.3382V20.7501C22.3554 21.8129 21.7732 22.3546 20.762 22.3546H18.2901C17.7589 22.3546 17.4627 22.651 17.4627 23.1824C17.4627 23.7036 17.7589 24 18.2901 24Z" fill="#C7C7CC"/>
<path d="M8.86211 19.6974H19.1379C19.5771 19.6974 19.8018 19.4011 19.8018 18.9821C19.8018 17.7558 17.9428 14.5672 14 14.5672C10.0572 14.5672 8.19816 17.7558 8.19816 18.9821C8.19816 19.4011 8.42289 19.6974 8.86211 19.6974ZM14 13.6474C15.6037 13.6576 16.8805 12.2984 16.8805 10.4895C16.8805 8.80327 15.6037 7.40316 14 7.40316C12.3963 7.40316 11.1195 8.80327 11.1195 10.4895C11.1195 12.2984 12.3963 13.6372 14 13.6474Z" fill="#C7C7CC"/>
</svg>
