<svg width="28" height="28" viewBox="0 0 28 28" fill="none" xmlns="http://www.w3.org/2000/svg">
<path d="M7.83522 4.44H20.1638C20.1228 3.64667 19.6218 3.19 18.7895 3.19H9.20946C8.37718 3.19 7.87624 3.64667 7.83522 4.44Z" fill="#C7C7CC"/>
<path d="M5.8373 7.22827C6.15254 7.17963 6.48592 7.15485 6.83641 7.15485H21.1626C21.5132 7.15485 21.8466 7.17963 22.162 7.22833C22.0553 6.29138 21.4285 5.76813 20.3911 5.76813H7.61766C6.58028 5.76813 5.94539 6.29138 5.8373 7.22827Z" fill="#C7C7CC"/>
<path d="M7.90085 24.02H20.0981C19.5805 21.5298 17.0805 19.7232 14.0043 19.7232C10.9184 19.7232 8.41843 21.5298 7.90085 24.02ZM14.0043 18.2388C15.6938 18.2388 17.0317 16.8228 17.0317 14.9282C17.0317 13.1411 15.6938 11.6763 14.0043 11.6763C12.3051 11.6763 10.977 13.1411 10.977 14.9282C10.977 16.8228 12.3051 18.2388 14.0043 18.2388ZM6.8364 24.8111H21.1625C23.2036 24.8111 24.2289 23.7954 24.2289 21.7837V11.7544C24.2289 9.74273 23.2036 8.72711 21.1625 8.72711H6.8364C4.79539 8.72711 3.77 9.74273 3.77 11.7544V21.7837C3.77 23.7954 4.79539 24.8111 6.8364 24.8111ZM6.8657 23.2388C5.88914 23.2388 5.34226 22.7115 5.34226 21.6958V11.8423C5.34226 10.8267 5.88914 10.2994 6.8657 10.2994H21.143C22.1 10.2994 22.6567 10.8267 22.6567 11.8423V21.6958C22.6567 22.7115 22.1 23.2388 21.143 23.2388H6.8657Z" fill="#C7C7CC"/>
</svg>
