<svg width="28" height="28" viewBox="0 0 28 28" fill="none" xmlns="http://www.w3.org/2000/svg">
<path d="M11.5664 9.98047C11.5664 12.0996 9.98438 13.7402 8.16797 13.7402C6.3418 13.7402 4.75977 12.0996 4.75977 10C4.75977 7.91016 6.35156 6.32812 8.16797 6.32812C9.97461 6.32812 11.5664 7.87109 11.5664 9.98047Z" fill="#C7C7CC"/>
<path d="M10.1711 22.5586H2.71875C1.48828 22.5586 1 22.0703 1 21.1816C1 18.4863 3.75391 15.2343 8.1582 15.2343C9.82588 15.2343 11.2569 15.7006 12.3915 16.4263C10.7716 17.8387 9.85742 19.6418 9.85742 21.2597C9.85742 21.7226 9.95098 22.1691 10.1711 22.5586Z" fill="#C7C7CC"/>
<path d="M19.4082 13.5156C21.5078 13.5156 23.3145 11.6406 23.3145 9.19922C23.3145 6.78711 21.498 5 19.4082 5C17.3184 5 15.502 6.82617 15.502 9.21875C15.502 11.6406 17.3086 13.5156 19.4082 13.5156ZM13.2656 22.5586H25.541C27.0742 22.5586 27.6211 22.1191 27.6211 21.2597C27.6211 18.7402 24.4668 15.2636 19.3984 15.2636C14.3398 15.2636 11.1855 18.7402 11.1855 21.2597C11.1855 22.1191 11.7324 22.5586 13.2656 22.5586Z" fill="#C7C7CC"/>
</svg>
