<svg width="28" height="28" viewBox="0 0 28 28" fill="none" xmlns="http://www.w3.org/2000/svg">
<path fill-rule="evenodd" clip-rule="evenodd" d="M23.9219 13.9609C23.9219 19.4004 19.4102 23.9219 13.9609 23.9219C8.52148 23.9219 4 19.4004 4 13.9609C4 8.51172 8.51172 4 13.9512 4C19.4004 4 23.9219 8.51172 23.9219 13.9609ZM7.95508 19.9277C9.44922 21.5195 11.7148 22.4375 13.9512 22.4375C16.1973 22.4375 18.4531 21.5195 19.957 19.9277C18.8926 18.248 16.5781 17.291 13.9512 17.291C11.3047 17.291 9.00977 18.2676 7.95508 19.9277ZM10.6016 11.9492C10.6016 14.0488 12.0762 15.6113 13.9512 15.6309C15.8359 15.6504 17.3008 14.0488 17.3008 11.9492C17.3008 9.97656 15.8262 8.33594 13.9512 8.33594C12.0859 8.33594 10.5918 9.97656 10.6016 11.9492Z" fill="#C7C7CC"/>
</svg>
