<svg width="28" height="28" viewBox="0 0 28 28" fill="none" xmlns="http://www.w3.org/2000/svg">
<path fill-rule="evenodd" clip-rule="evenodd" d="M22.4459 22.9785H5.55141C3.51039 22.9785 2.485 21.9727 2.485 19.9609V8.02734C2.485 6.01562 3.51039 5 5.55141 5H22.4459C24.4967 5 25.5123 6.01562 25.5123 8.02734V19.9609C25.5123 21.9727 24.4967 22.9785 22.4459 22.9785ZM4.05727 19.8926C4.05727 20.8496 4.62367 21.416 5.57094 21.416H22.4362C23.3639 21.416 23.9401 20.8496 23.9401 19.9121V18.4082L19.4479 14.248C18.9889 13.8184 18.4323 13.6133 17.8952 13.6133C17.3385 13.6133 16.8014 13.8086 16.3229 14.2383L11.6549 18.3789L9.78969 16.6992C9.36 16.2988 8.86195 16.1035 8.38344 16.1035C7.95375 16.1035 7.485 16.2988 7.05531 16.6797L4.05727 19.2969V19.8926ZM7.39711 11.8262C7.39711 13.1543 8.48109 14.2383 9.80922 14.2383C11.1276 14.2383 12.2116 13.1543 12.2116 11.8262C12.2116 10.5078 11.1276 9.41406 9.80922 9.41406C8.48109 9.41406 7.39711 10.5078 7.39711 11.8262Z" fill="#C7C7CC"/>
</svg>
