<svg width="28" height="28" viewBox="0 0 28 28" fill="none" xmlns="http://www.w3.org/2000/svg">
<path d="M6 14.0566C6 14.5352 6.40039 14.9258 6.86914 14.9258H13.1875V21.2441C13.1875 21.7129 13.5781 22.1133 14.0566 22.1133C14.5352 22.1133 14.9355 21.7129 14.9355 21.2441V14.9258H21.2441C21.7129 14.9258 22.1133 14.5352 22.1133 14.0566C22.1133 13.5781 21.7129 13.1777 21.2441 13.1777H14.9355V6.86914C14.9355 6.40039 14.5352 6 14.0566 6C13.5781 6 13.1875 6.40039 13.1875 6.86914V13.1777H6.86914C6.40039 13.1777 6 13.5781 6 14.0566Z" fill="#C7C7CC"/>
</svg>
