<svg width="28" height="28" viewBox="0 0 28 28" fill="none" xmlns="http://www.w3.org/2000/svg">
<path fill-rule="evenodd" clip-rule="evenodd" d="M23.9219 13.9609C23.9219 19.4004 19.4102 23.9219 13.9609 23.9219C8.52148 23.9219 4 19.4004 4 13.9609C4 8.51172 8.51172 4 13.9512 4C19.4004 4 23.9219 8.51172 23.9219 13.9609ZM12.9453 15.25C12.9453 15.7773 13.2383 16.0508 13.7559 16.0508C14.2637 16.0508 14.5762 15.7285 14.5762 15.3281V15.2109C14.5762 14.6445 14.8984 14.2832 15.6016 13.8242C16.5781 13.1797 17.2812 12.5938 17.2812 11.3828C17.2812 9.70312 15.7871 8.81445 14.0684 8.81445C12.3301 8.81445 11.1973 9.625 10.9238 10.5527C10.875 10.709 10.8359 10.875 10.8359 11.0508C10.8359 11.5 11.1973 11.7441 11.5293 11.7441C11.8711 11.7441 12.0957 11.5781 12.2812 11.3438L12.457 11.0996C12.8184 10.5137 13.3359 10.1816 14.0098 10.1816C14.918 10.1816 15.5137 10.6992 15.5137 11.4609C15.5137 12.1445 15.0938 12.4766 14.2148 13.0918C13.4922 13.5996 12.9453 14.127 12.9453 15.123V15.25ZM12.6426 18.0039C12.6426 18.5801 13.1504 19.0488 13.7363 19.0488C14.3223 19.0488 14.8301 18.5898 14.8301 18.0039C14.8301 17.418 14.332 16.9492 13.7363 16.9492C13.1406 16.9492 12.6426 17.4277 12.6426 18.0039Z" fill="#C7C7CC"/>
</svg>
