<svg width="28" height="28" viewBox="0 0 28 28" fill="none" xmlns="http://www.w3.org/2000/svg">
<path d="M12.7656 15.8477C12.7656 13.25 10.8418 11.1797 8.36133 11.1797C7.19922 11.1797 6.0957 11.6387 5.28516 12.5371H5.02148C5.58789 10.6914 7.30664 9.14844 9.44531 8.51367C9.74805 8.41602 9.97266 8.32812 10.1094 8.21094C10.2656 8.08398 10.3535 7.92773 10.3535 7.70312C10.3535 7.29297 10.041 7.00977 9.58203 7.00977C9.2793 7.00977 9.04492 7.06836 8.625 7.20508C7.27734 7.64453 6.06641 8.41602 5.12891 9.40234C3.81055 10.7695 3 12.5957 3 14.7637C3 18.4258 5.32422 20.5449 8.04883 20.5449C10.7344 20.5449 12.7656 18.4941 12.7656 15.8477ZM24.4941 15.8477C24.4941 13.25 22.5605 11.1797 20.0898 11.1797C18.9277 11.1797 17.8145 11.6387 17.0137 12.5371H16.75C17.3164 10.6914 19.0352 9.14844 21.1641 8.51367C21.4668 8.41602 21.7012 8.32812 21.8379 8.21094C21.9941 8.08398 22.0723 7.92773 22.0723 7.70312C22.0723 7.29297 21.7695 7.00977 21.3105 7.00977C20.998 7.00977 20.7734 7.06836 20.3438 7.20508C19.0059 7.64453 17.7852 8.41602 16.8477 9.40234C15.5391 10.7695 14.7285 12.5957 14.7285 14.7637C14.7285 18.4258 17.0527 20.5449 19.7773 20.5449C22.4629 20.5449 24.4941 18.4941 24.4941 15.8477Z" fill="#C7C7CC"/>
</svg>
