<svg width="28" height="28" viewBox="0 0 28 28" fill="none" xmlns="http://www.w3.org/2000/svg">
<path d="M3 11.6973C3 14.2949 4.93359 16.3652 7.4043 16.3652C8.56641 16.3652 9.66992 15.9063 10.4805 15.0078H10.7441C10.1777 16.8535 8.45898 18.3964 6.33008 19.0312C6.01758 19.1289 5.79297 19.2168 5.65625 19.334C5.5 19.4609 5.42188 19.6172 5.42188 19.8418C5.42188 20.2519 5.72461 20.5351 6.17383 20.5351C6.49609 20.5351 6.7207 20.4765 7.15039 20.3398C8.48828 19.9004 9.70898 19.1289 10.6465 18.1425C11.9551 16.7754 12.7656 14.9492 12.7656 12.7813C12.7656 9.11914 10.4414 7 7.7168 7C5.03125 7 3 9.05078 3 11.6973ZM14.7285 11.6973C14.7285 14.2949 16.6523 16.3652 19.1328 16.3652C20.2949 16.3652 21.3887 15.9063 22.209 15.0078H22.4629C21.9062 16.8535 20.1875 18.3964 18.0488 19.0312C17.7363 19.1289 17.5215 19.2168 17.3848 19.334C17.2285 19.4609 17.1406 19.6172 17.1406 19.8418C17.1406 20.2519 17.4531 20.5351 17.9121 20.5351C18.2148 20.5351 18.4492 20.4765 18.8691 20.3398C20.2168 19.9004 21.4277 19.1289 22.3555 18.1425C23.6836 16.7754 24.4941 14.9492 24.4941 12.7813C24.4941 9.11914 22.1699 7 19.4453 7C16.7598 7 14.7285 9.05078 14.7285 11.6973Z" fill="#C7C7CC"/>
</svg>
