<svg width="28" height="28" viewBox="0 0 28 28" fill="none" xmlns="http://www.w3.org/2000/svg">
<path d="M5.55641 22.9885H22.4509C24.5017 22.9885 25.5173 21.9827 25.5173 19.9709V8.03735C25.5173 6.02563 24.5017 5.01001 22.4509 5.01001H5.55641C3.51539 5.01001 2.49 6.02563 2.49 8.03735V19.9709C2.49 21.9827 3.51539 22.9885 5.55641 22.9885ZM5.57594 21.4162C4.59938 21.4162 4.06227 20.8987 4.06227 19.883V8.12524C4.06227 7.10962 4.59938 6.58228 5.57594 6.58228H22.4314C23.3982 6.58228 23.9451 7.10962 23.9451 8.12524V19.883C23.9451 20.8987 23.3982 21.4162 22.4314 21.4162H5.57594Z" fill="#C7C7CC"/>
</svg>
