<svg width="28" height="28" viewBox="0 0 28 28" fill="none" xmlns="http://www.w3.org/2000/svg">
<path d="M5.79 21.4109C5.79 23.4519 6.79586 24.4675 8.81734 24.4675H19.1884C21.2099 24.4675 22.2158 23.4519 22.2158 21.4109V6.59644C22.2158 4.56519 21.2099 3.53003 19.1884 3.53003H8.81734C6.79586 3.53003 5.79 4.56519 5.79 6.59644V21.4109ZM7.36227 21.3816V6.62573C7.36227 5.64917 7.87984 5.1023 8.89547 5.1023H19.1103C20.1259 5.1023 20.6435 5.64917 20.6435 6.62573V21.3816C20.6435 22.3581 20.1259 22.8952 19.1103 22.8952H8.89547C7.87984 22.8952 7.36227 22.3581 7.36227 21.3816Z" fill="#C7C7CC"/>
</svg>
