<svg width="28" height="28" viewBox="0 0 28 28" fill="none" xmlns="http://www.w3.org/2000/svg">
<path d="M14 5C8.71441 5 4.34089 8.10448 3.60678 12.1407C3.53559 12.5358 3.5 12.9351 3.5 13.343C3.5 14.8545 4.0072 16.2715 4.88814 17.4909C5.76462 18.7061 7.01483 19.7281 8.51419 20.458C8.5053 21.5444 7.89131 22.489 6.98369 23C7.00148 23 7.01928 23 7.03708 23C8.66547 23 10.1426 22.3903 11.246 21.3941C12.1225 21.583 13.0479 21.6861 14 21.6861C19.8017 21.6861 24.5 17.9504 24.5 13.3387C24.5 8.7271 19.8017 5 14 5Z" fill="#C7C7CC"/>
</svg>
