<svg width="28" height="28" viewBox="0 0 28 28" fill="none" xmlns="http://www.w3.org/2000/svg">
<path d="M6 15.5332C6 19.0976 7.91406 20.4062 13.4609 23.5312C13.7148 23.6679 13.959 23.7265 14.1152 23.7265C14.2715 23.7265 14.5254 23.6679 14.7695 23.5312C20.3262 20.416 22.2305 19.0976 22.2305 15.5332V8.0625C22.2305 7.03711 21.791 6.71484 20.9609 6.36328C19.8086 5.88476 16.0879 4.54687 14.9355 4.14648C14.6719 4.05859 14.3887 4 14.1152 4C13.8418 4 13.5586 4.07813 13.3047 4.14648C12.1523 4.47852 8.42188 5.89453 7.26953 6.36328C6.44922 6.70508 6 7.03711 6 8.0625V15.5332ZM7.55273 15.1719V13.5996H14.1152V5.57226C14.2227 5.57226 14.3496 5.60156 14.5059 5.66015C15.9805 6.24609 18.8418 7.28125 20.3555 7.79883C20.6191 7.89648 20.6777 8.0332 20.6777 8.36523V13.5996H14.1152V21.959C13.959 21.959 13.8027 21.9004 13.5098 21.7246C8.99805 18.9902 7.55273 18.1894 7.55273 15.1719Z" fill="#C7C7CC"/>
</svg>
