<svg width="28" height="28" viewBox="0 0 28 28" fill="none" xmlns="http://www.w3.org/2000/svg">
<path d="M6.31883 25.4792H21.6704C24.1997 25.4792 25.479 24.2097 25.479 21.7195V6.28979C25.479 3.79956 24.1997 2.53003 21.6704 2.53003H6.31883C3.7993 2.53003 2.52 3.78979 2.52 6.28979V21.7195C2.52 24.2195 3.7993 25.4792 6.31883 25.4792ZM6.35789 23.7507C4.9907 23.7507 4.24852 23.028 4.24852 21.6316V6.37768C4.24852 4.9812 4.9907 4.25854 6.35789 4.25854H21.6411C22.979 4.25854 23.7505 4.9812 23.7505 6.37768V21.6316C23.7505 23.028 22.979 23.7507 21.6411 23.7507H6.35789Z" fill="#C7C7CC"/>
</svg>
