<svg width="28" height="28" viewBox="0 0 28 28" fill="none" xmlns="http://www.w3.org/2000/svg">
<path d="M11.0059 10.3066H8.08594C7.10938 10.3066 6.57227 10.834 6.57227 11.8496V21.4199C6.57227 22.4355 7.10938 22.9629 8.08594 22.9629H19.2383C20.2051 22.9629 20.7617 22.4355 20.7617 21.4199V11.8496C20.7617 10.834 20.2051 10.3066 19.2383 10.3066H16.3281V8.73438H19.2676C21.3086 8.73438 22.334 9.75 22.334 11.7617V21.5078C22.334 23.5195 21.3086 24.5352 19.2676 24.5352H8.06641C6.02539 24.5352 5 23.5195 5 21.5078V11.7617C5 9.75 6.02539 8.73438 8.06641 8.73438H11.0059V10.3066Z" fill="#C7C7CC"/>
<path d="M13.6621 16.8887C14.082 16.8887 14.4434 16.5371 14.4434 16.127V6.09766L14.3848 4.63281L15.0391 5.32617L16.5234 6.9082C16.6602 7.06445 16.8555 7.14258 17.0508 7.14258C17.4512 7.14258 17.7637 6.84961 17.7637 6.44922C17.7637 6.24414 17.6758 6.08789 17.5293 5.94141L14.2285 2.75781C14.0332 2.5625 13.8672 2.49414 13.6621 2.49414C13.4668 2.49414 13.3008 2.5625 13.0957 2.75781L9.79492 5.94141C9.64844 6.08789 9.57031 6.24414 9.57031 6.44922C9.57031 6.84961 9.86328 7.14258 10.2734 7.14258C10.459 7.14258 10.6738 7.06445 10.8106 6.9082L12.2852 5.32617L12.9492 4.63281L12.8906 6.09766V16.127C12.8906 16.5371 13.2422 16.8887 13.6621 16.8887Z" fill="#C7C7CC"/>
</svg>
