<svg width="28" height="28" viewBox="0 0 28 28" fill="none" xmlns="http://www.w3.org/2000/svg">
<path d="M9.38023 21.1182H18.6283C20.2982 21.1182 21.1185 20.2979 21.1185 18.6573V9.34094C21.1185 7.70032 20.2982 6.88 18.6283 6.88H9.38023C7.72008 6.88 6.89 7.70032 6.89 9.34094V18.6573C6.89 20.2979 7.72008 21.1182 9.38023 21.1182ZM9.39977 19.7022C8.69664 19.7022 8.29625 19.3311 8.29625 18.589V9.4093C8.29625 8.67688 8.69664 8.29602 9.39977 8.29602H18.6088C19.3119 8.29602 19.7123 8.67688 19.7123 9.4093V18.589C19.7123 19.3311 19.3119 19.7022 18.6088 19.7022H9.39977Z" fill="#C7C7CC"/>
</svg>
