<svg width="28" height="28" viewBox="0 0 28 28" fill="none" xmlns="http://www.w3.org/2000/svg">
<path d="M25.1617 5.0603L24.3171 5.95044L22.5829 4.20394L23.4613 3.34759C23.8779 2.93068 24.5198 2.87433 24.9027 3.25745L25.1955 3.56167C25.6234 3.98985 25.5895 4.60959 25.1617 5.0603Z" fill="#C7C7CC"/>
<path d="M13.2925 16.9704L10.984 17.9394C10.725 18.0408 10.4322 17.7478 10.5448 17.4886L11.5583 15.2577L21.7608 5.03775L23.495 6.76172L13.2925 16.9704Z" fill="#C7C7CC"/>
<path d="M11.1198 5.20059H18.7454L16.4617 7.48429H11.1198C9.66102 7.48429 8.70429 7.48606 7.97261 7.54585C7.26758 7.60345 6.9749 7.70332 6.80771 7.78851C6.28252 8.05611 5.85552 8.4831 5.58792 9.0083C5.50273 9.17548 5.40285 9.46817 5.34525 10.1732C5.28547 10.9049 5.2837 11.8616 5.2837 13.3204V17.3803C5.2837 18.8391 5.28547 19.7958 5.34525 20.5275C5.40285 21.2325 5.50273 21.5252 5.58792 21.6924C5.85552 22.2175 6.28252 22.6446 6.80771 22.9122C6.9749 22.9974 7.26758 23.0973 7.97261 23.1549C8.70429 23.2146 9.66102 23.2164 11.1198 23.2164H15.1797C16.6385 23.2164 17.5952 23.2146 18.3269 23.1549C19.0319 23.0973 19.3246 22.9974 19.4918 22.9122C20.0169 22.6446 20.444 22.2175 20.7116 21.6924C20.7968 21.5252 20.8967 21.2325 20.9543 20.5275C21.014 19.7958 21.0158 18.8391 21.0158 17.3803V12.1253L23.2995 9.84156V17.3803C23.2995 20.2225 23.2995 21.6436 22.7463 22.7292C22.2598 23.684 21.4835 24.4604 20.5286 24.9469C19.443 25.5001 18.0219 25.5001 15.1797 25.5001H11.1198C8.27761 25.5001 6.85652 25.5001 5.77094 24.9469C4.81603 24.4604 4.03968 23.684 3.55314 22.7292C3 21.6436 3 20.2225 3 17.3803V13.3204C3 10.4782 3 9.05709 3.55314 7.97153C4.03968 7.01662 4.81603 6.24027 5.77094 5.75372C6.85652 5.20059 8.27761 5.20059 11.1198 5.20059Z" fill="#C7C7CC"/>
</svg>
