<svg width="28" height="28" viewBox="0 0 28 28" fill="none" xmlns="http://www.w3.org/2000/svg">
<path d="M8.40142 25.041H19.6026C21.6436 25.041 22.669 24.0254 22.669 22.0137V12.4629C22.669 10.4512 21.6436 9.43555 19.6026 9.43555H14.9737V16.6621C14.9737 17.1797 14.5245 17.6094 13.9971 17.6094C13.4698 17.6094 13.0303 17.1797 13.0303 16.6621V9.43555H8.40142C6.3604 9.43555 5.33501 10.4512 5.33501 12.4629V22.0137C5.33501 24.0254 6.3604 25.041 8.40142 25.041ZM13.9971 10.207C14.417 10.207 14.7784 9.85547 14.7784 9.44531V6.60352L14.7198 5.13867L15.3741 5.83203L16.8584 7.41406C16.9952 7.57031 17.1905 7.64844 17.3858 7.64844C17.7862 7.64844 18.0987 7.35547 18.0987 6.95508C18.0987 6.75 18.0108 6.59375 17.8643 6.44727L14.5635 3.26367C14.3682 3.06836 14.2022 3 13.9971 3C13.8018 3 13.6358 3.06836 13.4307 3.26367L10.1299 6.44727C9.98345 6.59375 9.90532 6.75 9.90532 6.95508C9.90532 7.35547 10.1983 7.64844 10.6084 7.64844C10.794 7.64844 11.0088 7.57031 11.1456 7.41406L12.6202 5.83203L13.2842 5.13867L13.2256 6.60352V9.44531C13.2256 9.85547 13.5772 10.207 13.9971 10.207Z" fill="#C7C7CC"/>
</svg>
