<svg width="28" height="28" viewBox="0 0 28 28" fill="none" xmlns="http://www.w3.org/2000/svg">
<path d="M7.31111 24.1869C7.71151 24.4994 8.21932 24.392 8.82479 23.9525L13.9908 20.1537L19.1666 23.9525C19.772 24.392 20.2701 24.4994 20.6802 24.1869C21.0806 23.8841 21.1685 23.3861 20.9244 22.6732L18.8834 16.599L24.0982 12.849C24.7037 12.4193 24.9478 11.9701 24.7916 11.4818C24.6353 11.0131 24.1763 10.7787 23.4244 10.7885L17.0279 10.8275L15.0845 4.72399C14.8502 4.00134 14.4986 3.64001 13.9908 3.64001C13.4927 3.64001 13.1412 4.00134 12.9068 4.72399L10.9635 10.8275L4.56697 10.7885C3.81503 10.7787 3.35604 11.0131 3.19979 11.4818C3.03378 11.9701 3.28768 12.4193 3.89315 12.849L9.10799 16.599L7.06697 22.6732C6.82283 23.3861 6.91072 23.8841 7.31111 24.1869ZM13.9908 18.474V6.01306C14.0201 6.01306 14.0396 6.03259 14.0494 6.09118L15.7486 11.7455C15.8755 12.1459 16.1295 12.3119 16.5298 12.3021L22.438 12.1947C22.4966 12.1947 22.5162 12.1947 22.5259 12.224C22.5357 12.2533 22.5162 12.2728 22.4771 12.3021L17.6138 15.6615C17.272 15.8959 17.1939 16.1986 17.3306 16.5795L19.274 22.1654C19.2838 22.224 19.2935 22.2338 19.274 22.2533C19.2545 22.2826 19.2252 22.263 19.1861 22.2338L14.4888 18.6498C14.3326 18.5326 14.1666 18.4642 13.9908 18.474Z" fill="#C7C7CC"/>
</svg>
