<svg width="28" height="28" viewBox="0 0 28 28" fill="none" xmlns="http://www.w3.org/2000/svg">
<path d="M7.31609 24.1819C7.71649 24.4944 8.2243 24.387 8.82977 23.9475L13.9958 20.1487L19.1716 23.9475C19.777 24.387 20.2751 24.4944 20.6852 24.1819C21.0856 23.8791 21.1735 23.3811 20.9294 22.6682L18.8884 16.594L24.1032 12.844C24.7087 12.4143 24.9528 11.9651 24.7966 11.4768C24.6403 11.0081 24.1813 10.7737 23.4294 10.7834L17.0329 10.8225L15.0895 4.71899C14.8552 3.99634 14.5036 3.63501 13.9958 3.63501C13.4977 3.63501 13.1462 3.99634 12.9118 4.71899L10.9684 10.8225L4.57195 10.7834C3.82 10.7737 3.36102 11.0081 3.20477 11.4768C3.03875 11.9651 3.29266 12.4143 3.89812 12.844L9.11297 16.594L7.07195 22.6682C6.82781 23.3811 6.9157 23.8791 7.31609 24.1819ZM8.72234 22.2483C8.70281 22.2288 8.71258 22.219 8.72234 22.1604L10.6657 16.5745C10.8024 16.1936 10.7243 15.8909 10.3825 15.6565L5.51922 12.2971C5.47039 12.2678 5.46063 12.2483 5.47039 12.219C5.48016 12.1897 5.49969 12.1897 5.55828 12.1897L11.4665 12.2971C11.8669 12.3069 12.1208 12.1409 12.2477 11.7405L13.947 6.08618C13.9567 6.02759 13.9763 6.00806 13.9958 6.00806C14.0251 6.00806 14.0446 6.02759 14.0544 6.08618L15.7536 11.7405C15.8805 12.1409 16.1345 12.3069 16.5348 12.2971L22.443 12.1897C22.5016 12.1897 22.5212 12.1897 22.5309 12.219C22.5407 12.2483 22.5212 12.2678 22.4821 12.2971L17.6188 15.6565C17.277 15.8909 17.1989 16.1936 17.3356 16.5745L19.279 22.1604C19.2888 22.219 19.2985 22.2288 19.279 22.2483C19.2595 22.2776 19.2302 22.258 19.1911 22.2288L14.4938 18.6448C14.1813 18.4006 13.82 18.4006 13.5075 18.6448L8.81024 22.2288C8.77117 22.258 8.74188 22.2776 8.72234 22.2483Z" fill="#C7C7CC"/>
</svg>
