<svg width="28" height="28" viewBox="0 0 28 28" fill="none" xmlns="http://www.w3.org/2000/svg">
<path d="M14.0566 21.4727C17.2988 21.4727 19.3789 19.8027 19.3789 17.2539C19.3789 15.2227 18.1387 14.1484 15.2481 13.4648L13.6563 13.084C11.6738 12.6055 10.834 12 10.834 10.916C10.834 9.54883 12.1816 8.58203 14.0469 8.58203C15.7266 8.58203 16.9277 9.34375 17.4062 10.6914C17.5625 11.0625 17.7969 11.2383 18.1875 11.2383C18.6953 11.2383 19.0078 10.9453 19.0078 10.457C19.0078 10.3105 18.9883 10.1543 18.9492 10.0078C18.5098 8.23047 16.5566 7 14.0469 7C11.1074 7 8.98828 8.67969 8.98828 11.043C8.98828 12.9668 10.1992 14.0898 12.8555 14.7148L14.6523 15.1445C16.6836 15.6328 17.5332 16.2969 17.5332 17.4688C17.5332 18.875 16.0977 19.9004 14.0566 19.9004C12.25 19.9004 10.8926 19.0703 10.3945 17.6836C10.2188 17.2637 10.0039 17.0781 9.59375 17.0781C9.06641 17.0781 8.74414 17.4004 8.74414 17.9082C8.74414 18.084 8.77344 18.2695 8.82227 18.4551C9.33984 20.3008 11.3711 21.4727 14.0566 21.4727Z" fill="#C7C7CC"/>
<path d="M6.40039 14.5H21.7227C21.9473 14.5 22.123 14.3242 22.123 14.0996C22.123 13.875 21.9473 13.6992 21.7227 13.6992H6.40039C6.17578 13.6992 6 13.875 6 14.0996C6 14.3242 6.17578 14.5 6.40039 14.5Z" fill="#C7C7CC"/>
</svg>
