<svg width="31" height="28" viewBox="0 0 31 28" fill="none" xmlns="http://www.w3.org/2000/svg">
<path d="M15.0977 12.6523C15.4297 12.6523 15.7227 12.8477 15.8887 13.209L16.9434 15.543C18.1152 18.0918 20.2539 19.1758 22.6074 19.1758C26.0449 19.1758 28.4668 17.0566 29.0234 13.3262L29.209 12.1152C29.4043 10.7969 30.1855 10.377 30.1855 9.81055C30.1855 9.3125 29.8242 9 29.1504 9C26.0742 9 23.2812 9.15625 21.6211 9.40039C18.1348 9.91797 16.7676 10.8066 15.0977 10.8066C13.418 10.8066 12.0508 9.91797 8.56445 9.40039C6.9043 9.15625 4.11133 9 1.04492 9C0.371094 9 0 9.3125 0 9.81055C0 10.377 0.791016 10.7969 0.986328 12.1152L1.17188 13.3262C1.71875 17.0566 4.14062 19.1758 7.58789 19.1758C9.94141 19.1758 12.0801 18.0918 13.2422 15.543L14.3066 13.209C14.4629 12.8477 14.7559 12.6523 15.0977 12.6523Z" fill="#C7C7CC"/>
</svg>
