<svg width="28" height="28" viewBox="0 0 28 28" fill="none" xmlns="http://www.w3.org/2000/svg">
<path d="M11.0196 21.7793C10.6388 21.7793 10.3946 21.5547 10.3751 21.1836L10.0821 10.4316C10.0724 10.0703 10.3165 9.83594 10.7071 9.83594C11.0685 9.83594 11.3224 10.0605 11.3321 10.4219L11.6446 21.1836C11.6544 21.5449 11.4005 21.7793 11.0196 21.7793ZM13.9981 21.7793C13.6173 21.7793 13.3536 21.5449 13.3536 21.1836V10.4316C13.3536 10.0703 13.6173 9.83594 13.9981 9.83594C14.379 9.83594 14.6524 10.0703 14.6524 10.4316V21.1836C14.6524 21.5449 14.379 21.7793 13.9981 21.7793ZM16.9864 21.7793C16.6055 21.7793 16.3516 21.5449 16.3614 21.1836L16.6641 10.4316C16.6739 10.0606 16.9278 9.83594 17.2891 9.83594C17.6798 9.83594 17.9239 10.0703 17.9141 10.4316L17.6212 21.1836C17.6016 21.5547 17.3575 21.7793 16.9864 21.7793ZM9.71103 7.46289H11.2638V5.37305C11.2638 4.81641 11.6544 4.45508 12.2403 4.45508H15.7364C16.3223 4.45508 16.713 4.81641 16.713 5.37305V7.46289H18.2657V5.27539C18.2657 3.85937 17.3477 3 15.8438 3H12.1329C10.629 3 9.71103 3.85937 9.71103 5.27539V7.46289ZM5.27744 8.24414H22.7286C23.129 8.24414 23.4512 7.90234 23.4512 7.50195C23.4512 7.10156 23.129 6.76953 22.7286 6.76953H5.27744C4.88681 6.76953 4.54501 7.10156 4.54501 7.50195C4.54501 7.91211 4.88681 8.24414 5.27744 8.24414ZM9.52548 24.748H18.4805C19.877 24.748 20.8145 23.8398 20.8829 22.4434L21.5665 8.03906H6.42978L7.12313 22.4531C7.19149 23.8496 8.10946 24.748 9.52548 24.748Z" fill="#C7C7CC"/>
</svg>
