<svg width="28" height="28" viewBox="0 0 28 28" fill="none" xmlns="http://www.w3.org/2000/svg">
<path d="M11.1075 21.7285C11.4786 21.7285 11.7227 21.4941 11.713 21.1523L11.4102 10.7031C11.4005 10.3613 11.1563 10.1367 10.8048 10.1367C10.4337 10.1367 10.1895 10.3711 10.1993 10.7129L10.4923 21.1523C10.502 21.5039 10.7462 21.7285 11.1075 21.7285ZM13.9981 21.7285C14.3692 21.7285 14.6329 21.4941 14.6329 21.1523V10.7129C14.6329 10.3711 14.3692 10.1367 13.9981 10.1367C13.627 10.1367 13.3731 10.3711 13.3731 10.7129V21.1523C13.3731 21.4941 13.627 21.7285 13.9981 21.7285ZM16.8985 21.7285C17.2501 21.7285 17.4942 21.5039 17.504 21.1523L17.797 10.7129C17.8067 10.3711 17.5626 10.1367 17.1915 10.1367C16.8399 10.1367 16.5958 10.3613 16.586 10.7129L16.293 21.1523C16.2833 21.4941 16.5274 21.7285 16.8985 21.7285ZM9.71102 7.58789H11.2637V5.49805C11.2637 4.94141 11.6544 4.58008 12.2403 4.58008H15.7364C16.3223 4.58008 16.713 4.94141 16.713 5.49805V7.58789H18.2657V5.40039C18.2657 3.98437 17.3477 3.125 15.8438 3.125H12.1329C10.629 3.125 9.71102 3.98437 9.71102 5.40039V7.58789ZM5.27742 8.36914H22.7286C23.129 8.36914 23.4512 8.02734 23.4512 7.62695C23.4512 7.22656 23.129 6.89453 22.7286 6.89453H5.27742C4.8868 6.89453 4.545 7.22656 4.545 7.62695C4.545 8.03711 4.8868 8.36914 5.27742 8.36914ZM9.52547 24.873H18.4805C19.877 24.873 20.8145 23.9648 20.8829 22.5684L21.5665 8.18359H19.9942L19.3399 22.4023C19.3204 22.9883 18.9005 23.3984 18.3243 23.3984H9.66219C9.10555 23.3984 8.68562 22.9785 8.65633 22.4023L7.96297 8.18359H6.42977L7.12312 22.5781C7.19148 23.9746 8.10945 24.873 9.52547 24.873Z" fill="#C7C7CC"/>
</svg>
