<svg width="28" height="28" viewBox="0 0 28 28" fill="none" xmlns="http://www.w3.org/2000/svg">
<path d="M5.55141 22.335H22.4459C24.4967 22.335 25.5123 21.3193 25.5123 19.3076V13.5263C25.5123 12.6474 25.3952 12.208 24.9557 11.6709L21.5866 7.50095C20.444 6.0947 19.9362 5.66501 18.1979 5.66501H9.79945C8.06117 5.66501 7.56312 6.0947 6.42055 7.50095L3.04164 11.6709C2.61195 12.208 2.485 12.6474 2.485 13.5263V19.3076C2.485 21.3291 3.51039 22.335 5.55141 22.335ZM5.57094 20.7627C4.59438 20.7627 4.05727 20.2451 4.05727 19.2295V14.3662H10.2487C10.483 16.1924 12.0162 17.54 13.9987 17.54C15.9811 17.54 17.5143 16.1826 17.7487 14.3662H23.9401V19.2295C23.9401 20.2451 23.3932 20.7627 22.4264 20.7627H5.57094ZM13.9987 16.0947C12.6217 16.0947 11.733 14.8935 11.733 13.7607V13.7314C11.733 13.3213 11.4889 12.9404 10.9811 12.9404H4.54555C4.22328 12.9404 4.15492 12.6572 4.32094 12.4521L7.94398 7.88181C8.4225 7.27634 8.96938 7.0322 9.68227 7.0322H18.3151C19.028 7.0322 19.5748 7.27634 20.0534 7.88181L23.6862 12.4521C23.8424 12.6572 23.7838 12.9404 23.4616 12.9404H17.0162C16.5084 12.9404 16.2741 13.3213 16.2741 13.7314V13.7607C16.2741 14.8935 15.3854 16.0947 13.9987 16.0947Z" fill="#C7C7CC"/>
</svg>
