<svg width="28" height="28" viewBox="0 0 28 28" fill="none" xmlns="http://www.w3.org/2000/svg">
<path d="M5.5514 22.335H22.4459C24.4967 22.335 25.5123 21.3193 25.5123 19.3076V13.917C25.5123 13.0381 25.3756 12.6279 24.9557 12.0615L21.5866 7.50095C20.5221 6.04587 19.9362 5.66501 18.1979 5.66501H9.79944C8.06116 5.66501 7.48499 6.04587 6.42054 7.50095L3.04163 12.0615C2.63147 12.6279 2.48499 13.0381 2.48499 13.917V19.3076C2.48499 21.3291 3.51038 22.335 5.5514 22.335ZM13.9987 16.6807C12.5338 16.6807 11.5963 15.4111 11.5963 14.2099V14.1806C11.5963 13.7412 11.3326 13.331 10.7858 13.331H4.56507C4.2428 13.331 4.17444 13.0576 4.33069 12.8427L7.94397 7.88181C8.39319 7.25681 8.96937 7.0322 9.68226 7.0322H18.3151C19.028 7.0322 19.6041 7.25681 20.0534 7.88181L23.6666 12.8427C23.8131 13.0576 23.7545 13.331 23.4323 13.331H17.2116C16.6647 13.331 16.4108 13.7412 16.4108 14.1806V14.2099C16.4108 15.4111 15.4733 16.6807 13.9987 16.6807Z" fill="#C7C7CC"/>
</svg>
