<svg width="28" height="28" viewBox="0 0 28 28" fill="none" xmlns="http://www.w3.org/2000/svg">
<path d="M5.06641 22.67H21.9609C24.0117 22.67 25.0273 21.6543 25.0273 19.6426V14.2519C25.0273 13.373 24.8906 12.9629 24.4707 12.3965L21.1016 7.83594C20.0371 6.38086 19.4512 6 17.7129 6H9.31445C7.57617 6 7 6.38086 5.93555 7.83594L2.55664 12.3965C2.14648 12.9629 2 13.373 2 14.2519V19.6426C2 21.6641 3.02539 22.67 5.06641 22.67ZM13.5137 17.0157C12.0488 17.0157 11.1113 15.7461 11.1113 14.5449V14.5156C11.1113 14.0762 10.8477 13.666 10.3008 13.666H4.08008C3.75781 13.666 3.68945 13.3926 3.8457 13.1777L7.45898 8.2168C7.9082 7.5918 8.48438 7.36719 9.19727 7.36719H17.8301C18.543 7.36719 19.1191 7.5918 19.5684 8.2168L23.1816 13.1777C23.3281 13.3926 23.2695 13.666 22.9473 13.666H16.7266C16.1797 13.666 15.9258 14.0762 15.9258 14.5156V14.5449C15.9258 15.7461 14.9883 17.0157 13.5137 17.0157Z" fill="#C7C7CC"/>
</svg>
