<svg width="28" height="28" viewBox="0 0 28 28" fill="none" xmlns="http://www.w3.org/2000/svg">
<path d="M5.1914 18.8266L9.41992 14.5199C9.50781 14.432 9.5957 14.3832 9.68359 14.3832C9.77148 14.3832 9.85937 14.432 9.94726 14.5199L13.541 18.2016C13.9609 18.641 14.4004 18.8461 14.8594 18.8461C15.3281 18.8461 15.7481 18.641 16.1875 18.2016L20.1719 14.1976L21.7734 15.809C22.125 16.1605 22.584 15.9457 22.7109 15.4476L24.1563 9.72499C24.2734 9.27577 23.8828 8.90468 23.4434 9.02186L17.7305 10.4574C17.2324 10.5941 17.0176 11.0433 17.3691 11.3949L18.9805 13.0062L15.1328 16.9027C15.0449 16.9906 14.9473 17.0395 14.8594 17.0395C14.7813 17.0395 14.6836 16.9906 14.5957 16.9027L11.002 13.2211C10.5723 12.7816 10.1426 12.5765 9.68359 12.5765C9.22461 12.5765 8.81445 12.7719 8.36523 13.2211L4 17.6449L5.1914 18.8266Z" fill="#C7C7CC"/>
</svg>
