<svg width="28" height="28" viewBox="0 0 28 28" fill="none" xmlns="http://www.w3.org/2000/svg">
<path fill-rule="evenodd" clip-rule="evenodd" d="M14 24C8.47715 24 4 19.5228 4 14C4 8.47715 8.47715 4 14 4C19.5228 4 24 8.47715 24 14C24 19.5228 19.5228 24 14 24ZM14.7903 10.6279V19.2299C14.7903 19.6535 14.4346 20 14 20C13.5654 20 13.2097 19.6535 13.2097 19.2299V10.6279L9.34541 14.3783C9.03721 14.6786 8.53935 14.6786 8.23115 14.3783C7.92295 14.078 7.92295 13.5928 8.23115 13.2925L13.4468 8.22525C13.755 7.92492 14.2529 7.92492 14.5611 8.22525L19.7689 13.3002C20.077 13.6005 20.077 14.0857 19.7689 14.386C19.4607 14.6863 18.9549 14.6863 18.6467 14.386L14.7903 10.6279Z" fill="#C7C7CC"/>
</svg>
