<svg width="28" height="28" viewBox="0 0 28 28" fill="none" xmlns="http://www.w3.org/2000/svg">
<path d="M4.70312 15.4085H9.0293C9.46875 15.4085 9.73242 15.2131 9.83008 14.8225L11.7148 6.15066H10.9727L13.8633 23.5139C13.9805 24.217 15.0645 24.2073 15.2012 23.5139L18.0039 10.3596L17.3887 10.3499L18.2676 14.7444C18.3555 15.1936 18.6094 15.4085 19.0684 15.4085H22.8574C23.248 15.4085 23.5605 15.1057 23.5605 14.7249C23.5605 14.3342 23.2578 14.0315 22.8574 14.0315H18.248L19.6543 15.1741L18.2773 9.06082C18.1309 8.38699 17.125 8.38699 16.959 9.09011L14.1074 21.8342H14.8008L11.9394 4.48074C11.832 3.79715 10.8359 3.77761 10.6797 4.48074L8.36523 15.1741L9.77148 14.0315H4.70312C4.30273 14.0315 4 14.344 4 14.7249C4 15.1057 4.30273 15.4085 4.70312 15.4085Z" fill="#C7C7CC"/>
</svg>
