<svg width="28" height="28" viewBox="0 0 28 28" fill="none" xmlns="http://www.w3.org/2000/svg">
<path d="M12.1667 16.6667L11.9314 14.2941H12.5098L12.1667 16.6667Z" fill="#C7C7CC"/>
<path d="M14.2941 13.3039H13.7255L14 11.3235L14.2941 13.3039Z" fill="#C7C7CC"/>
<path d="M15.8432 16.7255L15.4803 14.2941H16.1078L15.8432 16.7255Z" fill="#C7C7CC"/>
<path fill-rule="evenodd" clip-rule="evenodd" d="M24 14C24 19.4608 19.4706 24 14 24C8.53922 24 4 19.4608 4 14C4 8.52941 8.52941 4 13.9902 4C19.4608 4 24 8.52941 24 14ZM10.1471 13.3039C9.87255 13.3039 9.64706 13.5098 9.64706 13.8039C9.64706 14.0785 9.87255 14.3137 10.1471 14.3137H10.7647L11.4216 18.3921C11.4804 18.7941 11.7745 19.0195 12.1373 19.0195C12.5098 19.0195 12.8039 18.8138 12.8726 18.402L13.549 14.304H14.451L15.1471 18.402C15.2157 18.8138 15.5098 19.0195 15.8823 19.0195C16.2353 19.0195 16.5392 18.7941 16.598 18.3921L17.2353 14.304H17.8432C18.1275 14.304 18.3431 14.0686 18.3431 13.7941C18.3431 13.5 18.1275 13.2941 17.8432 13.2941H17.402L17.902 10.098L17.9094 10.0615C17.9262 9.97941 17.9411 9.90662 17.9411 9.80392C17.9411 9.45098 17.6667 9.23529 17.304 9.23529C16.9903 9.23529 16.7157 9.42157 16.6667 9.77451L16.2157 13.2941H15.3334L14.7549 9.90196C14.6961 9.48039 14.3529 9.2451 13.9902 9.2451C13.6078 9.2451 13.2941 9.48039 13.2255 9.91177L12.6569 13.3039H11.7941L11.3627 9.78431C11.3137 9.43137 11.0392 9.2451 10.7157 9.2451C10.3431 9.2451 10.0588 9.47059 10.0588 9.83333C10.0588 9.95098 10.0882 10.049 10.1078 10.1471L10.598 13.3039H10.1471Z" fill="#C7C7CC"/>
</svg>
