<svg width="28" height="28" viewBox="0 0 28 28" fill="none" xmlns="http://www.w3.org/2000/svg">
<path fill-rule="evenodd" clip-rule="evenodd" d="M23.9219 13.9609C23.9219 19.4004 19.4102 23.9219 13.9609 23.9219C8.52148 23.9219 4 19.4004 4 13.9609C4 8.51172 8.51172 4 13.9512 4C19.4004 4 23.9219 8.51172 23.9219 13.9609ZM10.2207 17.877C10.2207 18.2773 10.543 18.5801 10.9727 18.5801C11.2949 18.5801 11.4609 18.4629 11.7246 18.1113L13.9023 15.0156H13.9414L16.1094 18.1113C16.3633 18.4629 16.5488 18.5801 16.8613 18.5801C17.3203 18.5801 17.6621 18.2773 17.6621 17.8379C17.6621 17.6328 17.6035 17.4863 17.4668 17.3105L14.9473 13.8633L17.4863 10.4062C17.6328 10.2207 17.6816 10.0547 17.6816 9.86914C17.6816 9.46875 17.3496 9.15625 16.9199 9.15625C16.6074 9.15625 16.4023 9.2832 16.1875 9.61523L14.0781 12.7109H14.0293L11.8906 9.60547C11.6562 9.2832 11.4609 9.15625 11.1191 9.15625C10.6895 9.15625 10.3281 9.49805 10.3281 9.9082C10.3281 10.1328 10.377 10.2695 10.543 10.4941L12.9551 13.8145L10.3965 17.3496C10.2695 17.5352 10.2207 17.6719 10.2207 17.877Z" fill="#C7C7CC"/>
</svg>
