<svg width="28" height="28" viewBox="0 0 28 28" fill="none" xmlns="http://www.w3.org/2000/svg">
<path d="M6.2527 21.2429C6.5945 21.575 7.1609 21.575 7.49293 21.2429L13.7429 14.9929L19.9929 21.2429C20.325 21.575 20.9011 21.5847 21.2332 21.2429C21.5652 20.9011 21.5652 20.3445 21.2332 20.0125L14.9832 13.7527L21.2332 7.5027C21.5652 7.17067 21.575 6.60426 21.2332 6.27223C20.8914 5.93043 20.325 5.93043 19.9929 6.27223L13.7429 12.5222L7.49293 6.27223C7.1609 5.93043 6.58473 5.92067 6.2527 6.27223C5.92067 6.61403 5.92067 7.17067 6.2527 7.5027L12.5027 13.7527L6.2527 20.0125C5.92067 20.3445 5.9109 20.9109 6.2527 21.2429Z" fill="#C7C7CC"/>
</svg>
