<svg width="210" height="180" viewBox="0 0 210 180" fill="none" xmlns="http://www.w3.org/2000/svg">
<g clip-path="url(#clip0_595_589)">
<path d="M0.14917 29.8696H48.572C64.713 29.8696 78.7543 32.9066 90.6772 38.9806C102.6 45.0545 111.786 53.7343 118.216 65.0198C124.646 76.3054 127.852 89.5968 127.852 104.875C127.852 120.154 124.646 133.446 118.216 144.731C111.786 156.017 102.6 164.696 90.6772 170.77C78.7543 176.844 64.713 179.881 48.572 179.881H0.14917V29.8696ZM47.7284 156.298C64.5818 156.298 77.6857 151.986 87.0591 143.325C96.4137 134.683 101.1 121.86 101.1 104.857C101.1 87.8534 96.4137 75.0306 87.0591 66.3883C77.7045 57.7461 64.5818 53.4156 47.7284 53.4156H26.9383V156.279H47.7284V156.298Z" fill="#1C1C1E"/>
<path d="M208.988 30.2821L210 29.8884L200.027 12.9788L199.464 12.079L175.056 31.1632L179.293 1.20584L179.462 0.11853H158.409L162.815 31.1632L138.406 12.079L127.871 29.8884L157.059 41.6614L128.883 53.0219L127.871 53.4156L137.844 70.3252L138.406 71.2251L162.815 52.1408L158.578 82.1169L158.409 83.1855H179.462L175.056 52.1408L199.464 71.2251L210 53.4156L180.811 41.6614L208.988 30.2821Z" fill="#1C1C1E"/>
</g>
<defs>
<clipPath id="clip0_595_589">
<rect width="209.851" height="179.763" fill="white" transform="translate(0.148743 0.118576)"/>
</clipPath>
</defs>
</svg>
